Nobile-Bold.ufo
<glyph name="exclam" format="1">
  <advance width="731"/>
  <unicode hex="0021"/>
  <outline>
    <contour>
      <point x="577" y="1530" type="line" smooth="no"/>
      <point x="469" y="464" type="line" smooth="no"/>
      <point x="259" y="464" type="line" smooth="no"/>
      <point x="148" y="1530" type="line" smooth="no"/>
    </contour>
    <contour>
      <point x="375" y="-12" type="curve" smooth="yes"/>
      <point x="264.986" y="-12"/>
      <point x="187" y="72.3486"/>
      <point x="187" y="182" type="curve" smooth="yes"/>
      <point x="187" y="290"/>
      <point x="265" y="376"/>
      <point x="375" y="376" type="curve" smooth="yes"/>
      <point x="485" y="376"/>
      <point x="565" y="290"/>
      <point x="565" y="182" type="curve" smooth="yes"/>
      <point x="565" y="73"/>
      <point x="486" y="-12"/>
    </contour>
  </outline>
</glyph>
<glyph name="quotedbl" format="1">
  <advance width="1213"/>
  <unicode hex="0022"/>
  <outline>
    <contour>
      <point x="186" y="1578" type="line" smooth="no"/>
      <point x="550" y="1578" type="line" smooth="yes"/>
      <point x="552.847" y="1578"/>
      <point x="456.94" y="923.194"/>
      <point x="440" y="804" type="curve" smooth="no"/>
      <point x="270" y="804" type="line" smooth="no"/>
    </contour>
    <contour>
      <point x="668" y="1578" type="line" smooth="no"/>
      <point x="1032" y="1578" type="line" smooth="yes"/>
      <point x="1034.85" y="1578"/>
      <point x="938.94" y="923.194"/>
      <point x="922" y="804" type="curve" smooth="no"/>
      <point x="742" y="804" type="line" smooth="no"/>
    </contour>
  </outline>
</glyph>
<glyph name="numbersign" format="1">
  <advance width="1269"/>
  <unicode hex="0023"/>
  <outline>
    <contour>
      <point x="722" y="429" type="line" smooth="no"/>
      <point x="521" y="429" type="line" smooth="no"/>
      <point x="457" y="0" type="line" smooth="no"/>
      <point x="229" y="0" type="line" smooth="no"/>
      <point x="293" y="429" type="line" smooth="no"/>
      <point x="133" y="429" type="line" smooth="no"/>
      <point x="133" y="582" type="line" smooth="no"/>
      <point x="310" y="582" type="line" smooth="no"/>
      <point x="342" y="829" type="line" smooth="no"/>
      <point x="133" y="829" type="line" smooth="no"/>
      <point x="133" y="982" type="line" smooth="no"/>
      <point x="363" y="982" type="line" smooth="no"/>
      <point x="421" y="1411" type="line" smooth="no"/>
      <point x="647" y="1411" type="line" smooth="no"/>
      <point x="589" y="982" type="line" smooth="no"/>
      <point x="794" y="982" type="line" smooth="no"/>
      <point x="848" y="1411" type="line" smooth="no"/>
      <point x="1077" y="1411" type="line" smooth="no"/>
      <point x="1020" y="982" type="line" smooth="no"/>
      <point x="1174" y="982" type="line" smooth="no"/>
      <point x="1174" y="829" type="line" smooth="no"/>
      <point x="1001" y="829" type="line" smooth="no"/>
      <point x="968" y="582" type="line" smooth="no"/>
      <point x="1174" y="582" type="line" smooth="no"/>
      <point x="1174" y="429" type="line" smooth="no"/>
      <point x="949" y="429" type="line" smooth="no"/>
      <point x="887" y="0" type="line" smooth="no"/>
      <point x="659" y="0" type="line" smooth="no"/>
    </contour>
    <contour>
      <point x="540" y="582" type="line" smooth="no"/>
      <point x="738" y="582" type="line" smooth="no"/>
      <point x="769" y="829" type="line" smooth="no"/>
      <point x="572" y="829" type="line" smooth="no"/>
    </contour>
  </outline>
</glyph>
<glyph name="dollar" format="1">
  <advance width="1376"/>
  <unicode hex="0024"/>
  <outline>
    <contour>
      <point x="627" y="1599" type="curve" smooth="no"/>
      <point x="627" y="1712" type="line" smooth="no"/>
      <point x="737" y="1712" type="line" smooth="no"/>
      <point x="737" y="1593" type="line" smooth="no"/>
      <point x="925" y="1577"/>
      <point x="1084" y="1531"/>
      <point x="1179" y="1482" type="curve" smooth="no"/>
      <point x="1094" y="1225" type="line" smooth="no"/>
      <point x="989.848" y="1260.51"/>
      <point x="866.058" y="1307.1"/>
      <point x="737" y="1316" type="curve" smooth="no"/>
      <point x="737" y="971" type="line" smooth="no"/>
      <point x="893" y="913" type="line" smooth="yes"/>
      <point x="1092" y="839"/>
      <point x="1248" y="696"/>
      <point x="1248" y="485" type="curve" smooth="yes"/>
      <point x="1248" y="160"/>
      <point x="1061" y="-11"/>
      <point x="737" y="-34" type="curve" smooth="no"/>
      <point x="737" y="-147" type="line" smooth="no"/>
      <point x="627" y="-147" type="line" smooth="no"/>
      <point x="627" y="-36" type="line" smooth="no"/>
      <point x="405.856" y="-29.7881"/>
      <point x="222.73" y="56.7866"/>
      <point x="130" y="98" type="curve" smooth="no"/>
      <point x="195" y="363" type="line" smooth="yes"/>
      <point x="195" y="362"/>
      <point x="474" y="240"/>
      <point x="627" y="240" type="curve" smooth="no"/>
      <point x="627" y="682" type="line" smooth="no"/>
      <point x="346" y="799" type="line" smooth="yes"/>
      <point x="169" y="872"/>
      <point x="80" y="994"/>
      <point x="80" y="1168" type="curve" smooth="yes"/>
      <point x="80" y="1497"/>
      <point x="333" y="1599"/>
    </contour>
    <contour>
      <point x="627" y="1320" type="line" smooth="no"/>
      <point x="503" y="1317"/>
      <point x="412" y="1293"/>
      <point x="412" y="1171" type="curve" smooth="yes"/>
      <point x="412" y="1100.34"/>
      <point x="524.305" y="1050.8"/>
      <point x="627" y="1012" type="curve" smooth="no"/>
    </contour>
    <contour>
      <point x="737" y="251" type="line" smooth="no"/>
      <point x="840" y="274"/>
      <point x="910" y="336"/>
      <point x="910" y="437" type="curve" smooth="yes"/>
      <point x="910" y="540.184"/>
      <point x="847.661" y="590.053"/>
      <point x="737" y="637" type="curve" smooth="no"/>
    </contour>
  </outline>
</glyph>
<glyph name="quotesingle" format="1">
  <advance width="691"/>
  <unicode hex="0027"/>
  <outline>
    <contour>
      <point x="156" y="1578" type="line" smooth="no"/>
      <point x="530" y="1578" type="line" smooth="yes"/>
      <point x="532.847" y="1578"/>
      <point x="436.94" y="923.194"/>
      <point x="420" y="804" type="curve" smooth="no"/>
      <point x="240" y="804" type="line" smooth="no"/>
    </contour>
  </outline>
</glyph>
<glyph name="asterisk" format="1">
  <advance width="1012"/>
  <unicode hex="002a"/>
  <outline>
    <contour>
      <point x="520" y="1409" type="line" smooth="no"/>
      <point x="604" y="1554"/>
      <point x="632" y="1605"/>
      <point x="661" y="1653" type="curve" smooth="no"/>
      <point x="718" y="1619"/>
      <point x="771" y="1589"/>
      <point x="827" y="1556" type="curve" smooth="no"/>
      <point x="678" y="1298" type="line" smooth="no"/>
      <point x="955" y="1298" type="line" smooth="no"/>
      <point x="955" y="1139" type="line" smooth="no"/>
      <point x="682" y="1139" type="line" smooth="no"/>
      <point x="829" y="887" type="line" smooth="no"/>
      <point x="661" y="786" type="line" smooth="no"/>
      <point x="524" y="1029" type="line" smooth="no"/>
      <point x="425" y="857"/>
      <point x="404" y="820"/>
      <point x="386" y="788" type="curve" smooth="no"/>
      <point x="329" y="823"/>
      <point x="275" y="854"/>
      <point x="219" y="887" type="curve" smooth="no"/>
      <point x="367" y="1139" type="line" smooth="no"/>
      <point x="73" y="1139" type="line" smooth="no"/>
      <point x="73" y="1298" type="line" smooth="no"/>
      <point x="368" y="1298" type="line" smooth="no"/>
      <point x="220" y="1560" type="line" smooth="no"/>
      <point x="383" y="1652" type="line" smooth="no"/>
    </contour>
  </outline>
</glyph>
<glyph name="plus" format="1">
  <advance width="1064"/>
  <unicode hex="002b"/>
  <outline>
    <contour>
      <point x="959" y="450" type="line" smooth="no"/>
      <point x="680" y="450" type="line" smooth="no"/>
      <point x="680" y="97" type="line" smooth="no"/>
      <point x="392" y="97" type="line" smooth="no"/>
      <point x="392" y="450" type="line" smooth="no"/>
      <point x="115" y="450" type="line" smooth="no"/>
      <point x="115" y="706" type="line" smooth="no"/>
      <point x="392" y="706" type="line" smooth="no"/>
      <point x="392" y="1056" type="line" smooth="no"/>
      <point x="680" y="1056" type="line" smooth="no"/>
      <point x="680" y="706" type="line" smooth="no"/>
      <point x="959" y="706" type="line" smooth="no"/>
    </contour>
  </outline>
</glyph>
<glyph name="comma" format="1">
  <advance width="722"/>
  <unicode hex="002c"/>
  <outline>
    <contour>
      <point x="162" y="0" type="line" smooth="no"/>
      <point x="162" y="415" type="line" smooth="no"/>
      <point x="580" y="415" type="line" smooth="no"/>
      <point x="580" y="53" type="line" smooth="yes"/>
      <point x="580" y="-187"/>
      <point x="393" y="-257"/>
      <point x="225" y="-307" type="curve" smooth="no"/>
      <point x="163" y="-193" type="line" smooth="no"/>
      <point x="290" y="-147"/>
      <point x="340" y="-102"/>
      <point x="340" y="0" type="curve" smooth="no"/>
    </contour>
  </outline>
</glyph>
<glyph name="zero" format="1">
  <advance width="1457"/>
  <unicode hex="0030"/>
  <outline>
    <contour>
      <point x="725" y="233" type="curve" smooth="yes"/>
      <point x="926" y="233"/>
      <point x="985" y="393"/>
      <point x="985" y="602" type="curve" smooth="yes"/>
      <point x="985" y="793"/>
      <point x="920" y="946"/>
      <point x="725" y="946" type="curve" smooth="yes"/>
      <point x="528" y="946"/>
      <point x="471" y="776"/>
      <point x="471" y="592" type="curve" smooth="yes"/>
      <point x="471" y="374"/>
      <point x="536" y="233"/>
    </contour>
    <contour>
      <point x="725" y="1206" type="curve" smooth="yes"/>
      <point x="1116" y="1206"/>
      <point x="1313" y="964"/>
      <point x="1313" y="582" type="curve" smooth="yes"/>
      <point x="1313" y="209"/>
      <point x="1101" y="-27"/>
      <point x="723" y="-27" type="curve" smooth="yes"/>
      <point x="343" y="-27"/>
      <point x="141" y="217"/>
      <point x="141" y="590" type="curve" smooth="yes"/>
      <point x="141" y="974"/>
      <point x="345" y="1206"/>
    </contour>
  </outline>
</glyph>
<glyph name="one" format="1">
  <advance width="912"/>
  <unicode hex="0031"/>
  <outline>
    <contour>
      <point x="350" y="0" type="line" smooth="no"/>
      <point x="350" y="892" type="line" smooth="no"/>
      <point x="194" y="825" type="line" smooth="no"/>
      <point x="100" y="1063" type="line" smooth="no"/>
      <point x="367" y="1171" type="line" smooth="no"/>
      <point x="698" y="1171" type="line" smooth="no"/>
      <point x="698" y="0" type="line" smooth="no"/>
    </contour>
  </outline>
</glyph>
<glyph name="four" format="1">
  <advance width="1281"/>
  <unicode hex="0034"/>
  <outline>
    <contour>
      <point x="733" y="1217" type="line" smooth="no"/>
      <point x="985" y="1151" type="line" smooth="no"/>
      <point x="985" y="317" type="line" smooth="no"/>
      <point x="1165" y="317" type="line" smooth="no"/>
      <point x="1165" y="59" type="line" smooth="no"/>
      <point x="985" y="59" type="line" smooth="no"/>
      <point x="985" y="-217" type="line" smooth="no"/>
      <point x="697" y="-217" type="line" smooth="no"/>
      <point x="697" y="59" type="line" smooth="no"/>
      <point x="125" y="59" type="line" smooth="no"/>
      <point x="84" y="260" type="line" smooth="no"/>
    </contour>
    <contour>
      <point x="417" y="315" type="line" smooth="no"/>
      <point x="697" y="315" type="line" smooth="no"/>
      <point x="697" y="733" type="line" smooth="no"/>
    </contour>
  </outline>
</glyph>
<glyph name="five" format="1">
  <advance width="1174"/>
  <unicode hex="0035"/>
  <outline>
    <contour>
      <point x="171" y="161" type="line" smooth="no"/>
      <point x="271.228" y="126.712"/>
      <point x="381.732" y="86"/>
      <point x="526" y="86" type="curve" smooth="yes"/>
      <point x="669" y="86"/>
      <point x="750" y="150"/>
      <point x="750" y="280" type="curve" smooth="yes"/>
      <point x="750" y="418"/>
      <point x="680" y="506"/>
      <point x="550" y="506" type="curve" smooth="yes"/>
      <point x="483" y="506"/>
      <point x="399" y="479"/>
      <point x="300" y="425" type="curve" smooth="no"/>
      <point x="160" y="549" type="line" smooth="no"/>
      <point x="160" y="1169" type="line" smooth="no"/>
      <point x="965" y="1169" type="line" smooth="no"/>
      <point x="965" y="924" type="line" smooth="no"/>
      <point x="441" y="924" type="line" smooth="no"/>
      <point x="441" y="699" type="line" smooth="yes"/>
      <point x="441" y="703"/>
      <point x="506" y="741"/>
      <point x="584" y="741" type="curve" smooth="yes"/>
      <point x="872" y="741"/>
      <point x="1049" y="560"/>
      <point x="1049" y="278" type="curve" smooth="yes"/>
      <point x="1049" y="2"/>
      <point x="838" y="-183"/>
      <point x="548" y="-183" type="curve" smooth="yes"/>
      <point x="414" y="-183"/>
      <point x="250" y="-143"/>
      <point x="129" y="-90" type="curve" smooth="no"/>
    </contour>
  </outline>
</glyph>
<glyph name="six" format="1">
  <advance width="1267"/>
  <unicode hex="0036"/>
  <outline>
    <contour>
      <point x="463" y="457" type="line" smooth="no"/>
      <point x="468" y="278"/>
      <point x="524" y="160"/>
      <point x="686" y="160" type="curve" smooth="yes"/>
      <point x="837" y="160"/>
      <point x="875" y="286"/>
      <point x="875" y="433" type="curve" smooth="yes"/>
      <point x="875" y="556"/>
      <point x="813" y="621"/>
      <point x="694" y="621" type="curve" smooth="yes"/>
      <point x="607" y="621"/>
      <point x="530" y="589"/>
      <point x="463" y="526" type="curve" smooth="no"/>
    </contour>
    <contour>
      <point x="1189" y="386" type="curve" smooth="yes"/>
      <point x="1189" y="101"/>
      <point x="1002" y="-100"/>
      <point x="688" y="-100" type="curve" smooth="yes"/>
      <point x="339" y="-100"/>
      <point x="137" y="147"/>
      <point x="137" y="456" type="curve" smooth="yes"/>
      <point x="137" y="965"/>
      <point x="487" y="1250"/>
      <point x="911" y="1358" type="curve" smooth="no"/>
      <point x="991" y="1094" type="line" smooth="no"/>
      <point x="794" y="1054"/>
      <point x="652" y="976"/>
      <point x="565" y="860" type="curve" smooth="no"/>
      <point x="613" y="869"/>
      <point x="658" y="874"/>
      <point x="701" y="874" type="curve" smooth="yes"/>
      <point x="996" y="874"/>
      <point x="1189" y="648"/>
    </contour>
  </outline>
</glyph>
<glyph name="eight" format="1">
  <advance width="1306"/>
  <unicode hex="0038"/>
  <outline>
    <contour>
      <point x="1140" y="936" type="curve" smooth="yes"/>
      <point x="1140" y="773"/>
      <point x="1029" y="642"/>
      <point x="877" y="612" type="curve" smooth="no"/>
      <point x="1025" y="591"/>
      <point x="1167" y="456"/>
      <point x="1167" y="275" type="curve" smooth="yes"/>
      <point x="1167" y="-12"/>
      <point x="917" y="-127"/>
      <point x="653" y="-127" type="curve" smooth="yes"/>
      <point x="390" y="-127"/>
      <point x="139" y="-12"/>
      <point x="139" y="277" type="curve" smooth="yes"/>
      <point x="139" y="458"/>
      <point x="283" y="590"/>
      <point x="429" y="612" type="curve" smooth="no"/>
      <point x="279" y="642"/>
      <point x="166" y="772"/>
      <point x="166" y="936" type="curve" smooth="yes"/>
      <point x="166" y="1190"/>
      <point x="383" y="1323"/>
      <point x="653" y="1323" type="curve" smooth="yes"/>
      <point x="926" y="1323"/>
      <point x="1140" y="1187"/>
    </contour>
    <contour>
      <point x="845" y="297" type="curve" smooth="yes"/>
      <point x="845" y="426"/>
      <point x="778" y="510"/>
      <point x="653" y="510" type="curve" smooth="yes"/>
      <point x="528" y="510"/>
      <point x="461" y="426"/>
      <point x="461" y="297" type="curve" smooth="yes"/>
      <point x="461" y="180"/>
      <point x="525" y="137"/>
      <point x="653" y="137" type="curve" smooth="yes"/>
      <point x="784" y="137"/>
      <point x="845" y="180"/>
    </contour>
    <contour>
      <point x="827" y="922" type="curve" smooth="yes"/>
      <point x="827" y="1020"/>
      <point x="769" y="1069"/>
      <point x="653" y="1069" type="curve" smooth="yes"/>
      <point x="537" y="1069"/>
      <point x="479" y="1020"/>
      <point x="479" y="922" type="curve" smooth="yes"/>
      <point x="479" y="805"/>
      <point x="537" y="754"/>
      <point x="653" y="754" type="curve" smooth="yes"/>
      <point x="770" y="754"/>
      <point x="827" y="805"/>
    </contour>
  </outline>
</glyph>
<glyph name="semicolon" format="1">
  <advance width="749"/>
  <unicode hex="003b"/>
  <outline>
    <contour>
      <point x="193" y="0" type="line" smooth="no"/>
      <point x="193" y="415" type="line" smooth="no"/>
      <point x="611" y="415" type="line" smooth="no"/>
      <point x="611" y="53" type="line" smooth="yes"/>
      <point x="611" y="-187"/>
      <point x="424" y="-257"/>
      <point x="256" y="-307" type="curve" smooth="no"/>
      <point x="194" y="-193" type="line" smooth="no"/>
      <point x="321" y="-147"/>
      <point x="371" y="-102"/>
      <point x="371" y="0" type="curve" smooth="no"/>
    </contour>
    <contour>
      <point x="191" y="736" type="line" smooth="no"/>
      <point x="191" y="1168" type="line" smooth="no"/>
      <point x="609" y="1168" type="line" smooth="no"/>
      <point x="609" y="736" type="line" smooth="no"/>
    </contour>
  </outline>
</glyph>
<glyph name="question" format="1">
  <advance width="1081"/>
  <unicode hex="003f"/>
  <outline>
    <contour>
      <point x="682" y="1132" type="curve" smooth="yes"/>
      <point x="682" y="1272"/>
      <point x="563" y="1282"/>
      <point x="432" y="1282" type="curve" smooth="yes"/>
      <point x="328" y="1282"/>
      <point x="95" y="1213"/>
      <point x="95" y="1210" type="curve" smooth="yes"/>
      <point x="14" y="1463" type="line" smooth="no"/>
      <point x="144" y="1530"/>
      <point x="284" y="1555"/>
      <point x="462" y="1555" type="curve" smooth="yes"/>
      <point x="771" y="1555"/>
      <point x="1020" y="1443.06"/>
      <point x="1020" y="1147" type="curve" smooth="yes"/>
      <point x="1020" y="1068.58"/>
      <point x="1014" y="819.475"/>
      <point x="542" y="694" type="curve" smooth="no"/>
      <point x="542" y="420" type="line" smooth="no"/>
      <point x="221" y="420" type="line" smooth="no"/>
      <point x="221" y="829" type="line" smooth="no"/>
      <point x="398.177" y="894.276"/>
      <point x="682" y="953.917"/>
    </contour>
    <contour>
      <point x="398" y="-69" type="curve" smooth="yes"/>
      <point x="289.103" y="-69"/>
      <point x="209" y="15.6464"/>
      <point x="209" y="125" type="curve" smooth="yes"/>
      <point x="209" y="235"/>
      <point x="289" y="319"/>
      <point x="398" y="319" type="curve" smooth="yes"/>
      <point x="507" y="319"/>
      <point x="587" y="233"/>
      <point x="587" y="125" type="curve" smooth="yes"/>
      <point x="587" y="17"/>
      <point x="507" y="-69"/>
    </contour>
  </outline>
</glyph>
<glyph name="at" format="1">
  <advance width="1959"/>
  <unicode hex="0040"/>
  <outline>
    <contour>
      <point x="1053" y="987" type="curve" smooth="yes"/>
      <point x="882" y="987"/>
      <point x="776" y="878"/>
      <point x="776" y="635" type="curve" smooth="yes"/>
      <point x="776" y="541"/>
      <point x="827" y="453"/>
      <point x="911" y="453" type="curve" smooth="no"/>
      <point x="1092" y="459"/>
      <point x="1173" y="655"/>
      <point x="1210" y="868" type="curve" smooth="no"/>
      <point x="1229" y="968" type="line" smooth="no"/>
      <point x="1232" y="970"/>
      <point x="1135" y="987"/>
    </contour>
    <contour>
      <point x="970" y="-133" type="curve" smooth="yes"/>
      <point x="463" y="-133"/>
      <point x="127" y="172"/>
      <point x="127" y="642" type="curve" smooth="yes"/>
      <point x="127" y="1088"/>
      <point x="429" y="1532"/>
      <point x="1056" y="1532" type="curve" smooth="yes"/>
      <point x="1481" y="1532"/>
      <point x="1866" y="1263"/>
      <point x="1866" y="800" type="curve" smooth="yes"/>
      <point x="1866" y="483.529"/>
      <point x="1721.98" y="271"/>
      <point x="1386" y="271" type="curve" smooth="yes"/>
      <point x="1274" y="271"/>
      <point x="1215" y="348"/>
      <point x="1215" y="475" type="curve" smooth="yes"/>
      <point x="1215" y="492"/>
      <point x="1216" y="509"/>
      <point x="1218" y="527" type="curve" smooth="no"/>
      <point x="1154" y="343"/>
      <point x="1080" y="257"/>
      <point x="903" y="257" type="curve" smooth="yes"/>
      <point x="742.385" y="257"/>
      <point x="531" y="391.444"/>
      <point x="531" y="659" type="curve" smooth="yes"/>
      <point x="531" y="958.93"/>
      <point x="761.039" y="1165"/>
      <point x="1048" y="1165" type="curve" smooth="yes"/>
      <point x="1236" y="1165"/>
      <point x="1433" y="1099"/>
      <point x="1433" y="958" type="curve" smooth="yes"/>
      <point x="1433" y="947"/>
      <point x="1432" y="938"/>
      <point x="1431" y="931" type="curve" smooth="yes"/>
      <point x="1350" y="466" type="line" smooth="no"/>
      <point x="1525" y="495"/>
      <point x="1598" y="594"/>
      <point x="1598" y="758" type="curve" smooth="yes"/>
      <point x="1598" y="1111"/>
      <point x="1392" y="1292"/>
      <point x="1031" y="1292" type="curve" smooth="yes"/>
      <point x="656" y="1292"/>
      <point x="408" y="1022"/>
      <point x="408" y="642" type="curve" smooth="yes"/>
      <point x="408" y="277"/>
      <point x="637" y="95"/>
      <point x="1011" y="95" type="curve" smooth="yes"/>
      <point x="1095" y="95"/>
      <point x="1183" y="113"/>
      <point x="1275" y="150" type="curve" smooth="no"/>
      <point x="1329" y="-58" type="line" smooth="no"/>
      <point x="1245" y="-107"/>
      <point x="1110" y="-133"/>
    </contour>
  </outline>
</glyph>
<glyph name="I" format="1">
  <advance width="864"/>
  <unicode hex="0049"/>
  <outline>
    <contour>
      <point x="77" y="1339" type="line" smooth="no"/>
      <point x="77" y="1578" type="line" smooth="no"/>
      <point x="787" y="1578" type="line" smooth="no"/>
      <point x="787" y="1339" type="line" smooth="no"/>
      <point x="616" y="1339" type="line" smooth="no"/>
      <point x="616" y="239" type="line" smooth="no"/>
      <point x="787" y="239" type="line" smooth="no"/>
      <point x="787" y="0" type="line" smooth="no"/>
      <point x="77" y="0" type="line" smooth="no"/>
      <point x="77" y="239" type="line" smooth="no"/>
      <point x="247" y="239" type="line" smooth="no"/>
      <point x="247" y="1339" type="line" smooth="no"/>
    </contour>
  </outline>
</glyph>
<glyph name="K" format="1">
  <advance width="1466"/>
  <unicode hex="004b"/>
  <outline>
    <contour>
      <point x="515" y="676" type="line" smooth="no"/>
      <point x="515" y="0" type="line" smooth="no"/>
      <point x="146" y="0" type="line" smooth="no"/>
      <point x="146" y="1578" type="line" smooth="no"/>
      <point x="515" y="1578" type="line" smooth="no"/>
      <point x="515" y="901" type="line" smooth="no"/>
      <point x="597" y="901" type="line" smooth="no"/>
      <point x="1045" y="1578" type="line" smooth="no"/>
      <point x="1421" y="1578" type="line" smooth="no"/>
      <point x="888" y="797" type="line" smooth="no"/>
      <point x="1476" y="0" type="line" smooth="no"/>
      <point x="1091" y="0" type="line" smooth="no"/>
      <point x="589" y="676" type="line" smooth="no"/>
    </contour>
  </outline>
</glyph>
<glyph name="L" format="1">
  <advance width="1197"/>
  <unicode hex="004c"/>
  <outline>
    <contour>
      <point x="1197" y="0" type="line" smooth="no"/>
      <point x="146" y="0" type="line" smooth="no"/>
      <point x="146" y="1578" type="line" smooth="no"/>
      <point x="514" y="1578" type="line" smooth="no"/>
      <point x="514" y="268" type="line" smooth="no"/>
      <point x="1197" y="268" type="line" smooth="no"/>
    </contour>
  </outline>
</glyph>
<glyph name="N" format="1">
  <advance width="1624"/>
  <unicode hex="004e"/>
  <outline>
    <contour>
      <point x="1478" y="0" type="line" smooth="no"/>
      <point x="1097" y="0" type="line" smooth="no"/>
      <point x="475" y="1074" type="line" smooth="no"/>
      <point x="475" y="0" type="line" smooth="no"/>
      <point x="146" y="0" type="line" smooth="no"/>
      <point x="146" y="1578" type="line" smooth="no"/>
      <point x="540" y="1578" type="line" smooth="no"/>
      <point x="1151" y="519" type="line" smooth="no"/>
      <point x="1151" y="1578" type="line" smooth="no"/>
      <point x="1478" y="1578" type="line" smooth="no"/>
    </contour>
  </outline>
</glyph>
<glyph name="P" format="1">
  <advance width="1414"/>
  <unicode hex="0050"/>
  <outline>
    <contour>
      <point x="575" y="772" type="line" smooth="yes"/>
      <point x="807" y="772"/>
      <point x="979" y="832"/>
      <point x="979" y="1048" type="curve" smooth="yes"/>
      <point x="979" y="1282"/>
      <point x="844" y="1354"/>
      <point x="605" y="1354" type="curve" smooth="yes"/>
      <point x="515" y="1354" type="line" smooth="no"/>
      <point x="515" y="772" type="line" smooth="no"/>
    </contour>
    <contour>
      <point x="1347" y="1052" type="curve" smooth="no"/>
      <point x="1347" y="655"/>
      <point x="1043" y="552"/>
      <point x="577" y="552" type="curve" smooth="yes"/>
      <point x="515" y="552" type="line" smooth="no"/>
      <point x="515" y="0" type="line" smooth="no"/>
      <point x="146" y="0" type="line" smooth="no"/>
      <point x="146" y="1578" type="line" smooth="no"/>
      <point x="605" y="1578" type="line" smooth="yes"/>
      <point x="1058" y="1578"/>
      <point x="1340" y="1466"/>
    </contour>
  </outline>
</glyph>
<glyph name="Q" format="1">
  <advance width="1614"/>
  <unicode hex="0051"/>
  <outline>
    <contour>
      <point x="807" y="1339" type="curve" smooth="yes"/>
      <point x="541" y="1339"/>
      <point x="466" y="1099"/>
      <point x="466" y="789" type="curve" smooth="yes"/>
      <point x="466" y="492"/>
      <point x="534" y="238"/>
      <point x="807" y="238" type="curve" smooth="yes"/>
      <point x="1078" y="238"/>
      <point x="1148" y="487"/>
      <point x="1148" y="789" type="curve" smooth="yes"/>
      <point x="1148" y="1039"/>
      <point x="1095" y="1339"/>
    </contour>
    <contour>
      <point x="1517" y="789" type="curve" smooth="yes"/>
      <point x="1517" y="357"/>
      <point x="1352" y="63"/>
      <point x="995" y="-10" type="curve" smooth="no"/>
      <point x="1283" y="-234" type="line" smooth="no"/>
      <point x="1109" y="-420" type="line" smooth="no"/>
      <point x="653" y="-16" type="line" smooth="no"/>
      <point x="272" y="44"/>
      <point x="97" y="344"/>
      <point x="97" y="789" type="curve" smooth="yes"/>
      <point x="97" y="1302"/>
      <point x="330" y="1602"/>
      <point x="807" y="1602" type="curve" smooth="yes"/>
      <point x="1285" y="1602"/>
      <point x="1517" y="1299"/>
    </contour>
  </outline>
</glyph>
<glyph name="R" format="1">
  <advance width="1476"/>
  <unicode hex="0052"/>
  <outline>
    <contour>
      <point x="942" y="806" type="curve" smooth="no"/>
      <point x="1169" y="784"/>
      <point x="1302" y="701"/>
      <point x="1331" y="472" type="curve" smooth="yes"/>
      <point x="1391" y="0" type="line" smooth="no"/>
      <point x="1026" y="0" type="line" smooth="no"/>
      <point x="966" y="397" type="line" smooth="yes"/>
      <point x="934" y="607"/>
      <point x="846" y="666"/>
      <point x="633" y="666" type="curve" smooth="yes"/>
      <point x="515" y="666" type="line" smooth="no"/>
      <point x="515" y="0" type="line" smooth="no"/>
      <point x="146" y="0" type="line" smooth="no"/>
      <point x="146" y="1578" type="line" smooth="no"/>
      <point x="565" y="1578" type="line" smooth="yes"/>
      <point x="1192" y="1578"/>
      <point x="1359" y="1436"/>
      <point x="1359" y="1163" type="curve" smooth="yes"/>
      <point x="1359" y="906"/>
      <point x="1184" y="821"/>
    </contour>
    <contour>
      <point x="558" y="899" type="line" smooth="yes"/>
      <point x="845" y="899"/>
      <point x="991" y="938"/>
      <point x="991" y="1120" type="curve" smooth="yes"/>
      <point x="991" y="1307"/>
      <point x="881" y="1354"/>
      <point x="600" y="1354" type="curve" smooth="yes"/>
      <point x="515" y="1354" type="line" smooth="no"/>
      <point x="515" y="899" type="line" smooth="no"/>
    </contour>
  </outline>
</glyph>
<glyph name="S" format="1">
  <advance width="1342"/>
  <unicode hex="0053"/>
  <outline>
    <contour>
      <point x="129" y="117" type="curve" smooth="no"/>
      <point x="196" y="406" type="line" smooth="no"/>
      <point x="250" y="365"/>
      <point x="483" y="249"/>
      <point x="664" y="249" type="curve" smooth="yes"/>
      <point x="849" y="249"/>
      <point x="900" y="318"/>
      <point x="900" y="416" type="curve" smooth="yes"/>
      <point x="900" y="482"/>
      <point x="883" y="536"/>
      <point x="721" y="611" type="curve" smooth="yes"/>
      <point x="421" y="750" type="line" smooth="yes"/>
      <point x="189" y="858"/>
      <point x="99" y="954"/>
      <point x="99" y="1172" type="curve" smooth="yes"/>
      <point x="99" y="1497"/>
      <point x="388" y="1602"/>
      <point x="661" y="1602" type="curve" smooth="yes"/>
      <point x="866" y="1602"/>
      <point x="1082" y="1540"/>
      <point x="1187" y="1488" type="curve" smooth="no"/>
      <point x="1092" y="1210" type="line" smooth="no"/>
      <point x="992" y="1257"/>
      <point x="810" y="1311"/>
      <point x="662" y="1311" type="curve" smooth="yes"/>
      <point x="523" y="1311"/>
      <point x="448" y="1275"/>
      <point x="448" y="1175" type="curve" smooth="yes"/>
      <point x="448" y="1116"/>
      <point x="467" y="1093"/>
      <point x="602" y="1030" type="curve" smooth="yes"/>
      <point x="867" y="907" type="line" smooth="yes"/>
      <point x="1156" y="773"/>
      <point x="1243" y="658"/>
      <point x="1243" y="428" type="curve" smooth="yes"/>
      <point x="1243" y="193"/>
      <point x="1063" y="-31"/>
      <point x="714" y="-31" type="curve" smooth="yes"/>
      <point x="507" y="-31"/>
      <point x="304" y="7"/>
    </contour>
  </outline>
</glyph>
<glyph name="U" format="1">
  <advance width="1615"/>
  <unicode hex="0055"/>
  <outline>
    <contour>
      <point x="509" y="719" type="line" smooth="yes"/>
      <point x="509" y="423"/>
      <point x="539" y="229"/>
      <point x="799" y="229" type="curve" smooth="yes"/>
      <point x="1059" y="229"/>
      <point x="1106" y="421"/>
      <point x="1106" y="719" type="curve" smooth="yes"/>
      <point x="1106" y="1578" type="line" smooth="no"/>
      <point x="1475" y="1578" type="line" smooth="no"/>
      <point x="1475" y="723" type="line" smooth="yes"/>
      <point x="1475" y="229"/>
      <point x="1275" y="-28"/>
      <point x="808" y="-28" type="curve" smooth="yes"/>
      <point x="343" y="-28"/>
      <point x="140" y="224"/>
      <point x="140" y="723" type="curve" smooth="yes"/>
      <point x="140" y="1578" type="line" smooth="no"/>
      <point x="509" y="1578" type="line" smooth="no"/>
    </contour>
  </outline>
</glyph>
<glyph name="V" format="1">
  <advance width="1442"/>
  <unicode hex="0056"/>
  <outline>
    <contour>
      <point x="382" y="1578" type="line" smooth="no"/>
      <point x="725" y="423" type="line" smooth="no"/>
      <point x="1047" y="1578" type="line" smooth="no"/>
      <point x="1395" y="1578" type="line" smooth="no"/>
      <point x="903" y="0" type="line" smooth="no"/>
      <point x="537" y="0" type="line" smooth="no"/>
      <point x="38" y="1578" type="line" smooth="no"/>
    </contour>
  </outline>
</glyph>
<glyph name="W" format="1">
  <advance width="2064"/>
  <unicode hex="0057"/>
  <outline>
    <contour>
      <point x="816" y="1565" type="line" smooth="no"/>
      <point x="1249" y="1565" type="line" smooth="no"/>
      <point x="1466" y="408" type="line" smooth="no"/>
      <point x="1673" y="1578" type="line" smooth="no"/>
      <point x="2009" y="1578" type="line" smooth="no"/>
      <point x="1671" y="0" type="line" smooth="no"/>
      <point x="1266" y="0" type="line" smooth="no"/>
      <point x="1032" y="1225" type="line" smooth="no"/>
      <point x="799" y="0" type="line" smooth="no"/>
      <point x="393" y="0" type="line" smooth="no"/>
      <point x="49" y="1578" type="line" smooth="no"/>
      <point x="386" y="1578" type="line" smooth="no"/>
      <point x="599" y="408" type="line" smooth="no"/>
    </contour>
  </outline>
</glyph>
<glyph name="Y" format="1">
  <advance width="1336"/>
  <unicode hex="0059"/>
  <outline>
    <contour>
      <point x="667" y="905" type="line" smooth="no"/>
      <point x="977" y="1578" type="line" smooth="no"/>
      <point x="1351" y="1578" type="line" smooth="no"/>
      <point x="841" y="518" type="line" smooth="no"/>
      <point x="841" y="0" type="line" smooth="no"/>
      <point x="493" y="0" type="line" smooth="no"/>
      <point x="493" y="518" type="line" smooth="no"/>
      <point x="-15" y="1578" type="line" smooth="no"/>
      <point x="353" y="1578" type="line" smooth="no"/>
    </contour>
  </outline>
</glyph>
<glyph name="bracketleft" format="1">
  <advance width="1157"/>
  <unicode hex="005b"/>
  <outline>
    <contour>
      <point x="229" y="1578" type="line" smooth="no"/>
      <point x="979" y="1578" type="line" smooth="no"/>
      <point x="979" y="1316" type="line" smooth="no"/>
      <point x="561" y="1316" type="line" smooth="no"/>
      <point x="561" y="262" type="line" smooth="no"/>
      <point x="979" y="262" type="line" smooth="no"/>
      <point x="979" y="0" type="line" smooth="no"/>
      <point x="229" y="0" type="line" smooth="no"/>
    </contour>
  </outline>
</glyph>
<glyph name="backslash" format="1">
  <advance width="1181"/>
  <unicode hex="005c"/>
  <outline>
    <contour>
      <point x="487" y="1687" type="line" smooth="no"/>
      <point x="1058" y="-36" type="line" smooth="no"/>
      <point x="738" y="-147" type="line" smooth="no"/>
      <point x="166" y="1578" type="line" smooth="no"/>
    </contour>
  </outline>
</glyph>
<glyph name="asciicircum" format="1">
  <advance width="1229"/>
  <unicode hex="005e"/>
  <outline>
    <contour>
      <point x="487" y="1182" type="line" smooth="no"/>
      <point x="741" y="1182" type="line" smooth="no"/>
      <point x="999" y="563" type="line" smooth="no"/>
      <point x="725" y="563" type="line" smooth="no"/>
      <point x="613" y="947" type="line" smooth="no"/>
      <point x="501" y="563" type="line" smooth="no"/>
      <point x="229" y="563" type="line" smooth="no"/>
    </contour>
  </outline>
</glyph>
<glyph name="underscore" format="1">
  <advance width="1130"/>
  <unicode hex="005f"/>
  <outline>
    <contour>
      <point x="1063" y="-98" type="line" smooth="no"/>
      <point x="67" y="-98" type="line" smooth="no"/>
      <point x="67" y="164" type="line" smooth="no"/>
      <point x="1063" y="164" type="line" smooth="no"/>
    </contour>
  </outline>
</glyph>
<glyph name="grave" format="1">
  <advance width="862"/>
  <unicode hex="0060"/>
  <outline>
    <contour>
      <point x="489" y="1298" type="line" smooth="no"/>
      <point x="131" y="1840" type="line" smooth="no"/>
      <point x="443" y="1985" type="line" smooth="no"/>
      <point x="646" y="1372" type="line" smooth="no"/>
    </contour>
  </outline>
</glyph>
<glyph name="a" format="1">
  <advance width="1243"/>
  <unicode hex="0061"/>
  <outline>
    <contour>
      <point x="570" y="217" type="curve" smooth="yes"/>
      <point x="650" y="217"/>
      <point x="723" y="251"/>
      <point x="777" y="310" type="curve" smooth="no"/>
      <point x="777" y="539" type="line" smooth="no"/>
      <point x="745" y="542"/>
      <point x="713" y="547"/>
      <point x="681" y="547" type="curve" smooth="yes"/>
      <point x="541" y="547"/>
      <point x="401" y="534"/>
      <point x="401" y="359" type="curve" smooth="yes"/>
      <point x="401" y="269"/>
      <point x="471" y="217"/>
    </contour>
    <contour>
      <point x="622" y="954" type="curve" smooth="yes"/>
      <point x="493" y="954"/>
      <point x="366" y="928"/>
      <point x="249" y="873" type="curve" smooth="no"/>
      <point x="166" y="1082" type="line" smooth="no"/>
      <point x="305" y="1168"/>
      <point x="472" y="1196"/>
      <point x="634" y="1196" type="curve" smooth="yes"/>
      <point x="988" y="1196"/>
      <point x="1125" y="1015"/>
      <point x="1125" y="674" type="curve" smooth="yes"/>
      <point x="1125" y="0" type="line" smooth="no"/>
      <point x="854" y="0" type="line" smooth="no"/>
      <point x="806" y="150" type="line" smooth="no"/>
      <point x="736" y="29"/>
      <point x="639" y="-26"/>
      <point x="499" y="-26" type="curve" smooth="yes"/>
      <point x="251" y="-26"/>
      <point x="92" y="106"/>
      <point x="92" y="361" type="curve" smooth="yes"/>
      <point x="92" y="661"/>
      <point x="377" y="729"/>
      <point x="624" y="729" type="curve" smooth="yes"/>
      <point x="675" y="729"/>
      <point x="727" y="726"/>
      <point x="777" y="717" type="curve" smooth="no"/>
      <point x="777" y="839"/>
      <point x="779" y="954"/>
    </contour>
  </outline>
</glyph>
<glyph name="b" format="1">
  <advance width="1317"/>
  <unicode hex="0062"/>
  <outline>
    <contour>
      <point x="774" y="-26" type="curve" smooth="yes"/>
      <point x="607" y="-26"/>
      <point x="502" y="38"/>
      <point x="461" y="166" type="curve" smooth="no"/>
      <point x="385" y="0" type="line" smooth="no"/>
      <point x="140" y="0" type="line" smooth="no"/>
      <point x="140" y="1578" type="line" smooth="no"/>
      <point x="491" y="1638" type="line" smooth="no"/>
      <point x="491" y="1060" type="line" smooth="no"/>
      <point x="571" y="1151"/>
      <point x="676" y="1196"/>
      <point x="807" y="1196" type="curve" smooth="yes"/>
      <point x="1089" y="1196"/>
      <point x="1245" y="954"/>
      <point x="1245" y="586" type="curve" smooth="yes"/>
      <point x="1245" y="192"/>
      <point x="1087" y="-26"/>
    </contour>
    <contour>
      <point x="693" y="200" type="curve" smooth="yes"/>
      <point x="828" y="200"/>
      <point x="895" y="329"/>
      <point x="895" y="586" type="curve" smooth="yes"/>
      <point x="895" y="887"/>
      <point x="842" y="972"/>
      <point x="724" y="972" type="curve" smooth="yes"/>
      <point x="647" y="972"/>
      <point x="570" y="933"/>
      <point x="491" y="856" type="curve" smooth="no"/>
      <point x="491" y="296" type="line" smooth="no"/>
      <point x="550" y="232"/>
      <point x="617" y="200"/>
    </contour>
  </outline>
</glyph>
<glyph name="c" format="1">
  <advance width="1068"/>
  <unicode hex="0063"/>
  <outline>
    <contour>
      <point x="638" y="1196" type="curve" smooth="yes"/>
      <point x="809" y="1196"/>
      <point x="900" y="1165"/>
      <point x="1019" y="1106" type="curve" smooth="no"/>
      <point x="954" y="881" type="line" smooth="no"/>
      <point x="886" y="921"/>
      <point x="784" y="960"/>
      <point x="683" y="960" type="curve" smooth="yes"/>
      <point x="512" y="960"/>
      <point x="418" y="819"/>
      <point x="418" y="601" type="curve" smooth="yes"/>
      <point x="418" y="399"/>
      <point x="505" y="211"/>
      <point x="698" y="211" type="curve" smooth="yes"/>
      <point x="772" y="211"/>
      <point x="873" y="239"/>
      <point x="953" y="290" type="curve" smooth="no"/>
      <point x="1018" y="65" type="line" smooth="no"/>
      <point x="892" y="3"/>
      <point x="798" y="-26"/>
      <point x="664" y="-26" type="curve" smooth="yes"/>
      <point x="322" y="-26"/>
      <point x="68" y="176"/>
      <point x="68" y="571" type="curve" smooth="yes"/>
      <point x="68" y="928"/>
      <point x="293" y="1196"/>
    </contour>
  </outline>
</glyph>
<glyph name="e" format="1">
  <advance width="1203"/>
  <unicode hex="0065"/>
  <outline>
    <contour>
      <point x="845" y="676" type="line" smooth="no"/>
      <point x="845" y="865"/>
      <point x="778" y="960"/>
      <point x="634" y="960" type="curve" smooth="yes"/>
      <point x="492" y="960"/>
      <point x="417" y="839"/>
      <point x="417" y="676" type="curve" smooth="no"/>
    </contour>
    <contour>
      <point x="998" y="304" type="curve" smooth="no"/>
      <point x="1064" y="70" type="line" smooth="no"/>
      <point x="941" y="7"/>
      <point x="809" y="-26"/>
      <point x="675" y="-26" type="curve" smooth="yes"/>
      <point x="313" y="-26"/>
      <point x="68" y="182"/>
      <point x="68" y="546" type="curve" smooth="yes"/>
      <point x="68" y="920"/>
      <point x="266" y="1196"/>
      <point x="640" y="1196" type="curve" smooth="yes"/>
      <point x="953" y="1196"/>
      <point x="1119" y="979"/>
      <point x="1119" y="666" type="curve" smooth="yes"/>
      <point x="1119" y="502" type="line" smooth="no"/>
      <point x="428" y="502" type="line" smooth="no"/>
      <point x="434" y="325"/>
      <point x="536" y="212"/>
      <point x="702" y="212" type="curve" smooth="yes"/>
      <point x="816" y="212"/>
      <point x="915" y="244"/>
    </contour>
  </outline>
</glyph>
<glyph name="f" format="1">
  <advance width="868"/>
  <unicode hex="0066"/>
  <outline>
    <contour>
      <point x="701" y="1403" type="curve" smooth="yes"/>
      <point x="610" y="1403"/>
      <point x="564" y="1346"/>
      <point x="564" y="1164" type="curve" smooth="no"/>
      <point x="844" y="1164" type="line" smooth="no"/>
      <point x="844" y="1004" type="line" smooth="no"/>
      <point x="563" y="1004" type="line" smooth="no"/>
      <point x="563" y="0" type="line" smooth="no"/>
      <point x="213" y="0" type="line" smooth="no"/>
      <point x="213" y="1004" type="line" smooth="no"/>
      <point x="23" y="1004" type="line" smooth="no"/>
      <point x="23" y="1164" type="line" smooth="no"/>
      <point x="213" y="1164" type="line" smooth="no"/>
      <point x="213" y="1489"/>
      <point x="344" y="1662"/>
      <point x="621" y="1662" type="curve" smooth="yes"/>
      <point x="697" y="1662"/>
      <point x="773" y="1651"/>
      <point x="850" y="1633" type="curve" smooth="no"/>
      <point x="850" y="1378" type="line" smooth="no"/>
      <point x="805" y="1395"/>
      <point x="756" y="1403"/>
    </contour>
  </outline>
</glyph>
<glyph name="g" format="1">
  <advance width="1268"/>
  <unicode hex="0067"/>
  <outline>
    <contour>
      <point x="569" y="-294" type="curve" smooth="yes"/>
      <point x="701" y="-294"/>
      <point x="932" y="-309"/>
      <point x="932" y="-126" type="curve" smooth="yes"/>
      <point x="932" y="35"/>
      <point x="626" y="19"/>
      <point x="407" y="19" type="curve" smooth="no"/>
      <point x="373" y="-43"/>
      <point x="347" y="-95"/>
      <point x="347" y="-168" type="curve" smooth="yes"/>
      <point x="347" y="-291"/>
      <point x="478" y="-294"/>
    </contour>
    <contour>
      <point x="531" y="581" type="curve" smooth="no"/>
      <point x="659" y="600"/>
      <point x="818" y="628"/>
      <point x="818" y="787" type="curve" smooth="yes"/>
      <point x="818" y="925"/>
      <point x="754" y="988"/>
      <point x="616" y="988" type="curve" smooth="yes"/>
      <point x="514" y="988"/>
      <point x="408" y="958"/>
      <point x="408" y="836" type="curve" smooth="yes"/>
      <point x="408" y="740"/>
      <point x="459" y="643"/>
    </contour>
    <contour>
      <point x="1041" y="968" type="line" smooth="no"/>
      <point x="1078" y="926"/>
      <point x="1106" y="862"/>
      <point x="1106" y="806" type="curve" smooth="yes"/>
      <point x="1106" y="491"/>
      <point x="911" y="426"/>
      <point x="626" y="381" type="curve" smooth="yes"/>
      <point x="588" y="375"/>
      <point x="430" y="362"/>
      <point x="430" y="302" type="curve" smooth="yes"/>
      <point x="430" y="277"/>
      <point x="456" y="244"/>
      <point x="471" y="227" type="curve" smooth="no"/>
      <point x="807" y="227"/>
      <point x="1237" y="242"/>
      <point x="1237" y="-135" type="curve" smooth="yes"/>
      <point x="1237" y="-494"/>
      <point x="859" y="-549"/>
      <point x="577" y="-549" type="curve" smooth="yes"/>
      <point x="374" y="-549"/>
      <point x="95" y="-473"/>
      <point x="95" y="-223" type="curve" smooth="yes"/>
      <point x="95" y="-108"/>
      <point x="163" y="-4"/>
      <point x="246" y="70" type="curve" smooth="no"/>
      <point x="170" y="110"/>
      <point x="95" y="193"/>
      <point x="95" y="282" type="curve" smooth="yes"/>
      <point x="95" y="406"/>
      <point x="223" y="468"/>
      <point x="328" y="490" type="curve" smooth="no"/>
      <point x="172" y="547"/>
      <point x="94" y="675"/>
      <point x="94" y="839" type="curve" smooth="yes"/>
      <point x="94" y="1099"/>
      <point x="363" y="1196"/>
      <point x="583" y="1196" type="curve" smooth="yes"/>
      <point x="686" y="1196"/>
      <point x="818" y="1191"/>
      <point x="909" y="1136" type="curve" smooth="no"/>
      <point x="1036" y="1192"/>
      <point x="1132" y="1194"/>
      <point x="1268" y="1194" type="curve" smooth="no"/>
      <point x="1268" y="968" type="line" smooth="no"/>
    </contour>
  </outline>
</glyph>
<glyph name="h" format="1">
  <advance width="1349"/>
  <unicode hex="0068"/>
  <outline>
    <contour>
      <point x="496" y="1638" type="line" smooth="no"/>
      <point x="496" y="1057" type="line" smooth="no"/>
      <point x="557" y="1140"/>
      <point x="686" y="1196"/>
      <point x="819" y="1196" type="curve" smooth="yes"/>
      <point x="1017" y="1196"/>
      <point x="1224" y="1071"/>
      <point x="1224" y="723" type="curve" smooth="yes"/>
      <point x="1224" y="0" type="line" smooth="no"/>
      <point x="874" y="0" type="line" smooth="no"/>
      <point x="874" y="747" type="line" smooth="yes"/>
      <point x="874" y="888"/>
      <point x="799" y="962"/>
      <point x="710" y="962" type="curve" smooth="yes"/>
      <point x="571" y="962"/>
      <point x="496" y="884"/>
      <point x="496" y="884" type="curve" smooth="no"/>
      <point x="496" y="0" type="line" smooth="no"/>
      <point x="146" y="0" type="line" smooth="no"/>
      <point x="146" y="1578" type="line" smooth="no"/>
    </contour>
  </outline>
</glyph>
<glyph name="i" format="1">
  <advance width="684"/>
  <unicode hex="0069"/>
  <outline>
    <contour>
      <point x="149" y="1532" type="curve" smooth="yes"/>
      <point x="149" y="1641"/>
      <point x="233" y="1726"/>
      <point x="342" y="1726" type="curve" smooth="yes"/>
      <point x="450" y="1726"/>
      <point x="538" y="1641"/>
      <point x="538" y="1532" type="curve" smooth="yes"/>
      <point x="538" y="1422"/>
      <point x="451" y="1338"/>
      <point x="342" y="1338" type="curve" smooth="yes"/>
      <point x="230" y="1338"/>
      <point x="149" y="1426"/>
    </contour>
    <contour>
      <point x="517" y="0" type="line" smooth="no"/>
      <point x="166" y="0" type="line" smooth="no"/>
      <point x="166" y="1164" type="line" smooth="no"/>
      <point x="517" y="1164" type="line" smooth="no"/>
    </contour>
  </outline>
</glyph>
<glyph name="j" format="1">
  <advance width="730"/>
  <unicode hex="006a"/>
  <outline>
    <contour>
      <point x="-9" y="-113" type="line" smooth="no"/>
      <point x="123" y="-38"/>
      <point x="200" y="39"/>
      <point x="200" y="223" type="curve" smooth="yes"/>
      <point x="200" y="1164" type="line" smooth="no"/>
      <point x="551" y="1164" type="line" smooth="no"/>
      <point x="551" y="203" type="line" smooth="yes"/>
      <point x="551" y="-86"/>
      <point x="345" y="-292"/>
      <point x="102" y="-348" type="curve" smooth="no"/>
    </contour>
    <contour>
      <point x="185" y="1532" type="curve" smooth="yes"/>
      <point x="185" y="1644"/>
      <point x="265" y="1726"/>
      <point x="374" y="1726" type="curve" smooth="yes"/>
      <point x="484" y="1726"/>
      <point x="563" y="1641"/>
      <point x="563" y="1532" type="curve" smooth="yes"/>
      <point x="563" y="1423"/>
      <point x="485" y="1338"/>
      <point x="374" y="1338" type="curve" smooth="yes"/>
      <point x="262" y="1338"/>
      <point x="185" y="1427"/>
    </contour>
  </outline>
</glyph>
<glyph name="l" format="1">
  <advance width="649"/>
  <unicode hex="006c"/>
  <outline>
    <contour>
      <point x="507" y="1638" type="line" smooth="no"/>
      <point x="507" y="0" type="line" smooth="no"/>
      <point x="156" y="0" type="line" smooth="no"/>
      <point x="156" y="1578" type="line" smooth="no"/>
    </contour>
  </outline>
</glyph>
<glyph name="m" format="1">
  <advance width="1936"/>
  <unicode hex="006d"/>
  <outline>
    <contour>
      <point x="491" y="831" type="curve" smooth="no"/>
      <point x="491" y="0" type="line" smooth="no"/>
      <point x="140" y="0" type="line" smooth="no"/>
      <point x="140" y="1164" type="line" smooth="no"/>
      <point x="388" y="1164" type="line" smooth="no"/>
      <point x="466" y="982" type="line" smooth="no"/>
      <point x="523" y="1136"/>
      <point x="633" y="1196"/>
      <point x="781" y="1196" type="curve" smooth="yes"/>
      <point x="930" y="1196"/>
      <point x="1032" y="1151"/>
      <point x="1095" y="1022" type="curve" smooth="no"/>
      <point x="1178" y="1142"/>
      <point x="1276" y="1196"/>
      <point x="1450" y="1196" type="curve" smooth="yes"/>
      <point x="1689" y="1196"/>
      <point x="1811" y="1036"/>
      <point x="1811" y="755" type="curve" smooth="yes"/>
      <point x="1811" y="0" type="line" smooth="no"/>
      <point x="1460" y="0" type="line" smooth="no"/>
      <point x="1460" y="782" type="line" smooth="yes"/>
      <point x="1460" y="901"/>
      <point x="1420" y="960"/>
      <point x="1341" y="960" type="curve" smooth="yes"/>
      <point x="1278" y="960"/>
      <point x="1228" y="933"/>
      <point x="1155" y="862" type="curve" smooth="no"/>
      <point x="1155" y="0" type="line" smooth="no"/>
      <point x="804" y="0" type="line" smooth="no"/>
      <point x="804" y="792" type="line" smooth="yes"/>
      <point x="804" y="914"/>
      <point x="768" y="960"/>
      <point x="689" y="960" type="curve" smooth="yes"/>
      <point x="605" y="960"/>
      <point x="529" y="898"/>
    </contour>
  </outline>
</glyph>
<glyph name="n" format="1">
  <advance width="1303"/>
  <unicode hex="006e"/>
  <outline>
    <contour>
      <point x="473" y="1011" type="line" smooth="no"/>
      <point x="507" y="1114"/>
      <point x="656" y="1196"/>
      <point x="808" y="1196" type="curve" smooth="yes"/>
      <point x="991" y="1196"/>
      <point x="1178" y="1078"/>
      <point x="1178" y="730" type="curve" smooth="yes"/>
      <point x="1178" y="0" type="line" smooth="no"/>
      <point x="827" y="0" type="line" smooth="no"/>
      <point x="827" y="747" type="line" smooth="yes"/>
      <point x="827" y="909"/>
      <point x="789" y="961"/>
      <point x="681" y="961" type="curve" smooth="yes"/>
      <point x="587" y="961"/>
      <point x="523" y="913"/>
      <point x="491" y="856" type="curve" smooth="no"/>
      <point x="491" y="0" type="line" smooth="no"/>
      <point x="140" y="0" type="line" smooth="no"/>
      <point x="140" y="1164" type="line" smooth="no"/>
      <point x="406" y="1164" type="line" smooth="no"/>
    </contour>
  </outline>
</glyph>
<glyph name="o" format="1">
  <advance width="1274"/>
  <unicode hex="006f"/>
  <outline>
    <contour>
      <point x="638" y="208" type="curve" smooth="yes"/>
      <point x="788" y="208"/>
      <point x="858" y="326"/>
      <point x="858" y="584" type="curve" smooth="yes"/>
      <point x="858" y="842"/>
      <point x="788" y="960"/>
      <point x="638" y="960" type="curve" smooth="yes"/>
      <point x="488" y="960"/>
      <point x="418" y="842"/>
      <point x="418" y="584" type="curve" smooth="yes"/>
      <point x="418" y="423"/>
      <point x="443" y="208"/>
    </contour>
    <contour>
      <point x="1206" y="582" type="curve" smooth="yes"/>
      <point x="1206" y="199"/>
      <point x="1005" y="-26"/>
      <point x="638" y="-26" type="curve" smooth="yes"/>
      <point x="271" y="-26"/>
      <point x="68" y="199"/>
      <point x="68" y="582" type="curve" smooth="yes"/>
      <point x="68" y="970"/>
      <point x="274" y="1196"/>
      <point x="637" y="1196" type="curve" smooth="yes"/>
      <point x="999" y="1196"/>
      <point x="1206" y="970"/>
    </contour>
  </outline>
</glyph>
<glyph name="s" format="1">
  <advance width="1075"/>
  <unicode hex="0073"/>
  <outline>
    <contour>
      <point x="360" y="522" type="line" smooth="yes"/>
      <point x="179" y="597"/>
      <point x="81" y="656"/>
      <point x="81" y="864" type="curve" smooth="yes"/>
      <point x="81" y="1067"/>
      <point x="259" y="1196"/>
      <point x="549" y="1196" type="curve" smooth="yes"/>
      <point x="697" y="1196"/>
      <point x="891" y="1140"/>
      <point x="978" y="1104" type="curve" smooth="no"/>
      <point x="909" y="877" type="line" smooth="no"/>
      <point x="809" y="916"/>
      <point x="644" y="958"/>
      <point x="559" y="958" type="curve" smooth="yes"/>
      <point x="434" y="958"/>
      <point x="394" y="929"/>
      <point x="394" y="861" type="curve" smooth="yes"/>
      <point x="394" y="815"/>
      <point x="416" y="800"/>
      <point x="484" y="772" type="curve" smooth="yes"/>
      <point x="687" y="689" type="line" smooth="yes"/>
      <point x="924" y="592"/>
      <point x="1000" y="515"/>
      <point x="1000" y="348" type="curve" smooth="yes"/>
      <point x="1000" y="72"/>
      <point x="756" y="-26"/>
      <point x="528" y="-26" type="curve" smooth="yes"/>
      <point x="347" y="-26"/>
      <point x="199" y="9"/>
      <point x="84" y="78" type="curve" smooth="no"/>
      <point x="150" y="307" type="line" smooth="no"/>
      <point x="245" y="263"/>
      <point x="416" y="218"/>
      <point x="518" y="218" type="curve" smooth="yes"/>
      <point x="608" y="218"/>
      <point x="674" y="241"/>
      <point x="674" y="322" type="curve" smooth="yes"/>
      <point x="674" y="380"/>
      <point x="640" y="406"/>
      <point x="566" y="437" type="curve" smooth="yes"/>
    </contour>
  </outline>
</glyph>
<glyph name="t" format="1">
  <advance width="909"/>
  <unicode hex="0074"/>
  <outline>
    <contour>
      <point x="192" y="1004" type="line" smooth="no"/>
      <point x="2" y="1004" type="line" smooth="no"/>
      <point x="2" y="1164" type="line" smooth="no"/>
      <point x="201" y="1164" type="line" smooth="no"/>
      <point x="201" y="1526" type="line" smooth="no"/>
      <point x="541" y="1602" type="line" smooth="no"/>
      <point x="541" y="1164" type="line" smooth="no"/>
      <point x="860" y="1164" type="line" smooth="no"/>
      <point x="860" y="1004" type="line" smooth="no"/>
      <point x="541" y="1004" type="line" smooth="no"/>
      <point x="541" y="394" type="line" smooth="yes"/>
      <point x="541" y="279"/>
      <point x="594" y="241"/>
      <point x="661" y="241" type="curve" smooth="yes"/>
      <point x="717" y="241"/>
      <point x="774" y="258"/>
      <point x="829" y="280" type="curve" smooth="no"/>
      <point x="891" y="59" type="line" smooth="no"/>
      <point x="818" y="15"/>
      <point x="699" y="-15"/>
      <point x="571" y="-15" type="curve" smooth="yes"/>
      <point x="380" y="-15"/>
      <point x="192" y="83"/>
      <point x="192" y="427" type="curve" smooth="yes"/>
    </contour>
  </outline>
</glyph>
<glyph name="u" format="1">
  <advance width="1308"/>
  <unicode hex="0075"/>
  <outline>
    <contour>
      <point x="476" y="399" type="line" smooth="yes"/>
      <point x="476" y="250"/>
      <point x="541" y="202"/>
      <point x="615" y="202" type="curve" smooth="yes"/>
      <point x="693" y="202"/>
      <point x="786" y="256"/>
      <point x="817" y="304" type="curve" smooth="no"/>
      <point x="817" y="1164" type="line" smooth="no"/>
      <point x="1168" y="1164" type="line" smooth="no"/>
      <point x="1168" y="0" type="line" smooth="no"/>
      <point x="902" y="0" type="line" smooth="no"/>
      <point x="834" y="153" type="line" smooth="no"/>
      <point x="769" y="43"/>
      <point x="626" y="-28"/>
      <point x="490" y="-28" type="curve" smooth="yes"/>
      <point x="307" y="-28"/>
      <point x="125" y="102"/>
      <point x="125" y="449" type="curve" smooth="yes"/>
      <point x="125" y="1164" type="line" smooth="no"/>
      <point x="476" y="1164" type="line" smooth="no"/>
    </contour>
  </outline>
</glyph>
<glyph name="v" format="1">
  <advance width="1215"/>
  <unicode hex="0076"/>
  <outline>
    <contour>
      <point x="821" y="0" type="line" smooth="no"/>
      <point x="397" y="0" type="line" smooth="no"/>
      <point x="21" y="1164" type="line" smooth="no"/>
      <point x="389" y="1164" type="line" smooth="no"/>
      <point x="609" y="301" type="line" smooth="no"/>
      <point x="822" y="1164" type="line" smooth="no"/>
      <point x="1194" y="1164" type="line" smooth="no"/>
    </contour>
  </outline>
</glyph>
<glyph name="y" format="1">
  <advance width="1220"/>
  <unicode hex="0079"/>
  <outline>
    <contour>
      <point x="498" y="43" type="curve" smooth="no"/>
      <point x="16" y="1164" type="line" smooth="no"/>
      <point x="374" y="1164" type="line" smooth="no"/>
      <point x="650" y="374" type="line" smooth="no"/>
      <point x="842" y="1164" type="line" smooth="no"/>
      <point x="1196" y="1164" type="line" smooth="no"/>
      <point x="800" y="-32" type="line" smooth="no"/>
      <point x="704" y="-327"/>
      <point x="539" y="-466"/>
      <point x="244" y="-468" type="curve" smooth="no"/>
      <point x="146" y="-231" type="line" smooth="no"/>
      <point x="396" y="-213"/>
      <point x="449" y="-142"/>
    </contour>
  </outline>
</glyph>
<glyph name="z" format="1">
  <advance width="1012"/>
  <unicode hex="007a"/>
  <outline>
    <contour>
      <point x="549" y="899" type="line" smooth="no"/>
      <point x="86" y="899" type="line" smooth="no"/>
      <point x="86" y="1164" type="line" smooth="no"/>
      <point x="925" y="1164" type="line" smooth="no"/>
      <point x="925" y="933" type="line" smooth="no"/>
      <point x="457" y="264" type="line" smooth="no"/>
      <point x="936" y="264" type="line" smooth="no"/>
      <point x="936" y="0" type="line" smooth="no"/>
      <point x="74" y="0" type="line" smooth="no"/>
      <point x="74" y="233" type="line" smooth="no"/>
    </contour>
  </outline>
</glyph>
<glyph name="braceleft" format="1">
  <advance width="852"/>
  <unicode hex="007b"/>
  <outline>
    <contour>
      <point x="583" y="982" type="curve" smooth="yes"/>
      <point x="583" y="730"/>
      <point x="477" y="672"/>
      <point x="401" y="645" type="curve" smooth="no"/>
      <point x="523" y="599"/>
      <point x="584" y="486"/>
      <point x="584" y="307" type="curve" smooth="yes"/>
      <point x="584" y="15"/>
      <point x="608" y="-21"/>
      <point x="692" y="-21" type="curve" smooth="no"/>
      <point x="692" y="-210" type="line" smooth="no"/>
      <point x="487" y="-210"/>
      <point x="254" y="-140"/>
      <point x="254" y="262" type="curve" smooth="yes"/>
      <point x="254" y="486"/>
      <point x="223" y="550"/>
      <point x="145" y="550" type="curve" smooth="no"/>
      <point x="145" y="739" type="line" smooth="no"/>
      <point x="223" y="739"/>
      <point x="253" y="805"/>
      <point x="253" y="1027" type="curve" smooth="yes"/>
      <point x="253" y="1424"/>
      <point x="483" y="1499"/>
      <point x="692" y="1499" type="curve" smooth="no"/>
      <point x="692" y="1310" type="line" smooth="no"/>
      <point x="612" y="1310"/>
      <point x="583" y="1281"/>
    </contour>
  </outline>
</glyph>
<glyph name="bar" format="1">
  <advance width="813"/>
  <unicode hex="007c"/>
  <outline>
    <contour>
      <point x="252" y="-147" type="line" smooth="no"/>
      <point x="252" y="1667" type="line" smooth="no"/>
      <point x="560" y="1667" type="line" smooth="no"/>
      <point x="560" y="-147" type="line" smooth="no"/>
    </contour>
  </outline>
</glyph>
<glyph name="braceright" format="1">
  <advance width="852"/>
  <unicode hex="007d"/>
  <outline>
    <contour>
      <point x="269" y="982" type="curve" smooth="yes"/>
      <point x="268" y="1288"/>
      <point x="238" y="1310"/>
      <point x="160" y="1310" type="curve" smooth="no"/>
      <point x="160" y="1499" type="line" smooth="no"/>
      <point x="366" y="1499"/>
      <point x="599" y="1428"/>
      <point x="599" y="1027" type="curve" smooth="yes"/>
      <point x="599" y="805"/>
      <point x="627" y="739"/>
      <point x="707" y="739" type="curve" smooth="no"/>
      <point x="707" y="550" type="line" smooth="no"/>
      <point x="628" y="550"/>
      <point x="598" y="486"/>
      <point x="598" y="262" type="curve" smooth="yes"/>
      <point x="598" y="-134"/>
      <point x="370" y="-210"/>
      <point x="160" y="-210" type="curve" smooth="no"/>
      <point x="160" y="-21" type="line" smooth="no"/>
      <point x="238" y="-21"/>
      <point x="268" y="1"/>
      <point x="268" y="307" type="curve" smooth="yes"/>
      <point x="268" y="486"/>
      <point x="329" y="599"/>
      <point x="451" y="645" type="curve" smooth="no"/>
      <point x="366" y="675"/>
      <point x="269" y="738"/>
    </contour>
  </outline>
</glyph>
<glyph name="asciitilde" format="1">
  <advance width="1208"/>
  <unicode hex="007e"/>
  <outline>
    <contour>
      <point x="407" y="674" type="curve" smooth="no"/>
      <point x="571.941" y="671.565"/>
      <point x="702.726" y="540.597"/>
      <point x="793.856" y="540.597" type="curve" smooth="yes"/>
      <point x="838.841" y="540.597"/>
      <point x="850" y="564.441"/>
      <point x="850" y="635" type="curve" smooth="no"/>
      <point x="1061" y="635" type="line" smooth="no"/>
      <point x="1061" y="440"/>
      <point x="973" y="310"/>
      <point x="829" y="310" type="curve" smooth="yes"/>
      <point x="675.006" y="310"/>
      <point x="532.529" y="449.228"/>
      <point x="439.637" y="449.228" type="curve" smooth="yes"/>
      <point x="402.49" y="449.228"/>
      <point x="385" y="414.574"/>
      <point x="385" y="336" type="curve" smooth="no"/>
      <point x="177" y="336" type="line" smooth="no"/>
      <point x="177" y="557"/>
      <point x="254" y="674"/>
    </contour>
  </outline>
</glyph>
<glyph name="exclamdown" format="1">
  <advance width="792"/>
  <unicode hex="00a1"/>
  <outline>
    <contour>
      <point x="607" y="-1" type="line" smooth="no"/>
      <point x="178" y="-1" type="line" smooth="no"/>
      <point x="289" y="1065" type="line" smooth="no"/>
      <point x="499" y="1065" type="line" smooth="no"/>
    </contour>
    <contour>
      <point x="405" y="1153" type="curve" smooth="yes"/>
      <point x="294.986" y="1153"/>
      <point x="217" y="1237.35"/>
      <point x="217" y="1347" type="curve" smooth="yes"/>
      <point x="217" y="1455"/>
      <point x="295" y="1541"/>
      <point x="405" y="1541" type="curve" smooth="yes"/>
      <point x="515" y="1541"/>
      <point x="595" y="1455"/>
      <point x="595" y="1347" type="curve" smooth="yes"/>
      <point x="595" y="1238"/>
      <point x="516" y="1153"/>
    </contour>
  </outline>
</glyph>
<glyph name="currency" format="1">
  <advance width="1396"/>
  <unicode hex="00a4"/>
  <outline>
    <contour>
      <point x="719" y="1249" type="curve" smooth="yes"/>
      <point x="544.819" y="1249"/>
      <point x="453.729" y="1109.04"/>
      <point x="453.729" y="972.557" type="curve" smooth="yes"/>
      <point x="453.729" y="842.703"/>
      <point x="536.189" y="716"/>
      <point x="708" y="716" type="curve" smooth="yes"/>
      <point x="877.561" y="716"/>
      <point x="965.772" y="855.606"/>
      <point x="965.772" y="991.921" type="curve" smooth="yes"/>
      <point x="965.772" y="1121.96"/>
      <point x="885.5" y="1249"/>
    </contour>
    <contour>
      <point x="337" y="732" type="line" smooth="no"/>
      <point x="290" y="803"/>
      <point x="267" y="882"/>
      <point x="267" y="967" type="curve" smooth="yes"/>
      <point x="267" y="1057"/>
      <point x="293" y="1140"/>
      <point x="345" y="1217" type="curve" smooth="no"/>
      <point x="143" y="1419" type="line" smooth="no"/>
      <point x="272" y="1549" type="line" smooth="no"/>
      <point x="474" y="1347" type="line" smooth="no"/>
      <point x="551" y="1400"/>
      <point x="636" y="1426"/>
      <point x="727" y="1426" type="curve" smooth="yes"/>
      <point x="812" y="1426"/>
      <point x="890" y="1403"/>
      <point x="961" y="1356" type="curve" smooth="no"/>
      <point x="1154" y="1549" type="line" smooth="no"/>
      <point x="1283" y="1419" type="line" smooth="no"/>
      <point x="1088" y="1224" type="line" smooth="no"/>
      <point x="1131" y="1156"/>
      <point x="1152" y="1082"/>
      <point x="1152" y="1001" type="curve" smooth="yes"/>
      <point x="1152" y="910"/>
      <point x="1126" y="825"/>
      <point x="1073" y="748" type="curve" smooth="no"/>
      <point x="1283" y="538" type="line" smooth="no"/>
      <point x="1154" y="408" type="line" smooth="no"/>
      <point x="943" y="619" type="line" smooth="no"/>
      <point x="866" y="567"/>
      <point x="783" y="541"/>
      <point x="693" y="541" type="curve" smooth="yes"/>
      <point x="612" y="541"/>
      <point x="537" y="562"/>
      <point x="469" y="604" type="curve" smooth="no"/>
      <point x="272" y="408" type="line" smooth="no"/>
      <point x="143" y="538" type="line" smooth="no"/>
    </contour>
  </outline>
</glyph>
<glyph name="brokenbar" format="1">
  <advance width="753"/>
  <unicode hex="00a6"/>
  <outline>
    <contour>
      <point x="225" y="-147" type="line" smooth="no"/>
      <point x="225" y="599" type="line" smooth="no"/>
      <point x="534" y="599" type="line" smooth="no"/>
      <point x="534" y="-147" type="line" smooth="no"/>
    </contour>
    <contour>
      <point x="225" y="921" type="line" smooth="no"/>
      <point x="225" y="1667" type="line" smooth="no"/>
      <point x="534" y="1667" type="line" smooth="no"/>
      <point x="534" y="921" type="line" smooth="no"/>
    </contour>
  </outline>
</glyph>
<glyph name="guillemotleft" format="1">
  <advance width="1846"/>
  <unicode hex="00ab"/>
  <outline>
    <contour>
      <point x="904" y="862" type="line" smooth="no"/>
      <point x="432" y="579" type="line" smooth="no"/>
      <point x="904" y="285" type="line" smooth="no"/>
      <point x="904" y="-51" type="line" smooth="no"/>
      <point x="98" y="453" type="line" smooth="no"/>
      <point x="98" y="696" type="line" smooth="no"/>
      <point x="904" y="1200" type="line" smooth="no"/>
    </contour>
    <contour>
      <point x="1708" y="862" type="line" smooth="no"/>
      <point x="1236" y="579" type="line" smooth="no"/>
      <point x="1708" y="285" type="line" smooth="no"/>
      <point x="1708" y="-51" type="line" smooth="no"/>
      <point x="902" y="453" type="line" smooth="no"/>
      <point x="902" y="696" type="line" smooth="no"/>
      <point x="1708" y="1200" type="line" smooth="no"/>
    </contour>
  </outline>
</glyph>
<glyph name="logicalnot" format="1">
  <advance width="1130"/>
  <unicode hex="00ac"/>
  <outline>
    <contour>
      <point x="867" y="584" type="line" smooth="no"/>
      <point x="63" y="584" type="line" smooth="no"/>
      <point x="63" y="846" type="line" smooth="no"/>
      <point x="1059" y="846" type="line" smooth="no"/>
      <point x="1059" y="224" type="line" smooth="no"/>
      <point x="867" y="224" type="line" smooth="no"/>
    </contour>
  </outline>
</glyph>
<glyph name="registered" format="1">
  <advance width="1366"/>
  <unicode hex="00ae"/>
  <outline>
    <contour>
      <point x="665" y="1044.2" type="line" smooth="yes"/>
      <point x="761" y="1044.2"/>
      <point x="807" y="1067.2"/>
      <point x="807" y="1140.2" type="curve" smooth="yes"/>
      <point x="807" y="1201.2"/>
      <point x="773" y="1220.2"/>
      <point x="616" y="1220.2" type="curve" smooth="no"/>
      <point x="616" y="1044.2" type="line" smooth="no"/>
    </contour>
    <contour>
      <point x="961" y="697.2" type="line" smooth="no"/>
      <point x="833" y="634.2" type="line" smooth="no"/>
      <point x="650" y="932.2" type="line" smooth="no"/>
      <point x="611" y="932.2" type="line" smooth="no"/>
      <point x="611" y="660.2" type="line" smooth="no"/>
      <point x="479" y="660.2" type="line" smooth="no"/>
      <point x="479" y="1329.2" type="line" smooth="no"/>
      <point x="615" y="1329.2" type="line" smooth="yes"/>
      <point x="802" y="1329.2"/>
      <point x="940" y="1288.2"/>
      <point x="940" y="1145.2" type="curve" smooth="yes"/>
      <point x="940" y="1041.2"/>
      <point x="900" y="991.2"/>
      <point x="775" y="957.2" type="curve" smooth="no"/>
    </contour>
    <contour>
      <point x="15" y="990.2" type="curve" smooth="yes"/>
      <point x="15" y="1335.2"/>
      <point x="293" y="1638.2"/>
      <point x="688" y="1638.2" type="curve" smooth="yes"/>
      <point x="1058" y="1638.2"/>
      <point x="1363" y="1358.2"/>
      <point x="1363" y="990.2" type="curve" smooth="yes"/>
      <point x="1363" y="641.2"/>
      <point x="1078" y="342.2"/>
      <point x="688" y="342.2" type="curve" smooth="yes"/>
      <point x="313" y="342.2"/>
      <point x="15" y="625.2"/>
    </contour>
    <contour>
      <point x="687" y="478.2" type="curve" smooth="yes"/>
      <point x="991" y="478.2"/>
      <point x="1216" y="705.2"/>
      <point x="1216" y="988.2" type="curve" smooth="yes"/>
      <point x="1216" y="1275.2"/>
      <point x="990" y="1500.2"/>
      <point x="687" y="1500.2" type="curve" smooth="yes"/>
      <point x="385" y="1500.2"/>
      <point x="160" y="1276.2"/>
      <point x="160" y="987.2" type="curve" smooth="yes"/>
      <point x="160" y="700.2"/>
      <point x="384" y="478.2"/>
    </contour>
  </outline>
</glyph>
<glyph name="plusminus" format="1">
  <advance width="1134"/>
  <unicode hex="00b1"/>
  <outline>
    <contour>
      <point x="1023" y="770" type="line" smooth="no"/>
      <point x="744" y="770" type="line" smooth="no"/>
      <point x="744" y="417" type="line" smooth="no"/>
      <point x="456" y="417" type="line" smooth="no"/>
      <point x="456" y="770" type="line" smooth="no"/>
      <point x="179" y="770" type="line" smooth="no"/>
      <point x="179" y="1019" type="line" smooth="no"/>
      <point x="456" y="1019" type="line" smooth="no"/>
      <point x="456" y="1369" type="line" smooth="no"/>
      <point x="744" y="1369" type="line" smooth="no"/>
      <point x="744" y="1019" type="line" smooth="no"/>
      <point x="1023" y="1019" type="line" smooth="no"/>
    </contour>
    <contour>
      <point x="998" y="0" type="line" smooth="no"/>
      <point x="204" y="0" type="line" smooth="no"/>
      <point x="204" y="242" type="line" smooth="no"/>
      <point x="998" y="242" type="line" smooth="no"/>
    </contour>
  </outline>
</glyph>
<glyph name="acute" format="1">
  <advance width="1097"/>
  <unicode hex="00b4"/>
  <outline>
    <contour>
      <point x="538" y="1298" type="line" smooth="no"/>
      <point x="381" y="1372" type="line" smooth="no"/>
      <point x="584" y="1985" type="line" smooth="no"/>
      <point x="896" y="1840" type="line" smooth="no"/>
    </contour>
  </outline>
</glyph>
<glyph name="periodcentered" format="1">
  <advance width="571"/>
  <unicode hex="00b7"/>
  <outline>
    <contour>
      <point x="98" y="832" type="curve" smooth="yes"/>
      <point x="98" y="941"/>
      <point x="182" y="1026"/>
      <point x="291" y="1026" type="curve" smooth="yes"/>
      <point x="399" y="1026"/>
      <point x="487" y="941"/>
      <point x="487" y="832" type="curve" smooth="yes"/>
      <point x="487" y="722"/>
      <point x="400" y="638"/>
      <point x="291" y="638" type="curve" smooth="yes"/>
      <point x="179" y="638"/>
      <point x="98" y="726"/>
    </contour>
  </outline>
</glyph>
<glyph name="uni00B9" format="1">
  <advance width="912"/>
  <unicode hex="00b9"/>
  <outline>
    <contour>
      <point x="344" y="702" type="line" smooth="no"/>
      <point x="344" y="1416" type="line" smooth="no"/>
      <point x="219" y="1362" type="line" smooth="no"/>
      <point x="144" y="1552" type="line" smooth="no"/>
      <point x="358" y="1639" type="line" smooth="no"/>
      <point x="622" y="1639" type="line" smooth="no"/>
      <point x="622" y="702" type="line" smooth="no"/>
    </contour>
  </outline>
</glyph>
<glyph name="guillemotright" format="1">
  <advance width="1888"/>
  <unicode hex="00bb"/>
  <outline>
    <contour>
      <point x="974" y="862" type="line" smooth="no"/>
      <point x="974" y="1200" type="line" smooth="no"/>
      <point x="1780" y="696" type="line" smooth="no"/>
      <point x="1780" y="453" type="line" smooth="no"/>
      <point x="974" y="-51" type="line" smooth="no"/>
      <point x="974" y="285" type="line" smooth="no"/>
      <point x="1455" y="579" type="line" smooth="no"/>
    </contour>
    <contour>
      <point x="170" y="862" type="line" smooth="no"/>
      <point x="170" y="1200" type="line" smooth="no"/>
      <point x="976" y="696" type="line" smooth="no"/>
      <point x="976" y="453" type="line" smooth="no"/>
      <point x="170" y="-51" type="line" smooth="no"/>
      <point x="170" y="285" type="line" smooth="no"/>
      <point x="651" y="579" type="line" smooth="no"/>
    </contour>
  </outline>
</glyph>
<glyph name="onehalf" format="1">
  <advance width="2090"/>
  <unicode hex="00bd"/>
  <outline>
    <contour>
      <point x="447" y="-29" type="line" smooth="no"/>
      <point x="1153" y="1541" type="line" smooth="no"/>
      <point x="1379" y="1458" type="line" smooth="no"/>
      <point x="666" y="-107" type="line" smooth="no"/>
    </contour>
    <contour>
      <point x="258" y="411" type="line" smooth="no"/>
      <point x="258" y="1125" type="line" smooth="no"/>
      <point x="133" y="1071" type="line" smooth="no"/>
      <point x="58" y="1261" type="line" smooth="no"/>
      <point x="344" y="1373" type="line" smooth="no"/>
      <point x="522" y="1333" type="line" smooth="no"/>
      <point x="522" y="411" type="line" smooth="no"/>
    </contour>
    <contour>
      <point x="1728" y="725" type="curve" smooth="yes"/>
      <point x="1728" y="802"/>
      <point x="1691" y="840"/>
      <point x="1604" y="840" type="curve" smooth="yes"/>
      <point x="1519.61" y="840"/>
      <point x="1398.82" y="787.416"/>
      <point x="1333" y="756" type="curve" smooth="no"/>
      <point x="1261" y="947" type="line" smooth="no"/>
      <point x="1359.4" y="989.174"/>
      <point x="1485.35" y="1049"/>
      <point x="1622" y="1049" type="curve" smooth="yes"/>
      <point x="1807" y="1049"/>
      <point x="1994" y="973"/>
      <point x="1994" y="763" type="curve" smooth="no"/>
      <point x="1995.42" y="595.758"/>
      <point x="1865.5" y="439"/>
      <point x="1642" y="310" type="curve" smooth="no"/>
      <point x="1970" y="310" type="line" smooth="no"/>
      <point x="1970" y="96" type="line" smooth="no"/>
      <point x="1283" y="96" type="line" smooth="no"/>
      <point x="1283" y="270" type="line" smooth="no"/>
      <point x="1392.63" y="362.32"/>
      <point x="1728" y="552.1"/>
    </contour>
  </outline>
</glyph>
<glyph name="questiondown" format="1">
  <advance width="1159"/>
  <unicode hex="00bf"/>
  <outline>
    <contour>
      <point x="444" y="318" type="curve" smooth="yes"/>
      <point x="444" y="177"/>
      <point x="561" y="168"/>
      <point x="694" y="168" type="curve" smooth="yes"/>
      <point x="802" y="168"/>
      <point x="1031" y="237"/>
      <point x="1031" y="240" type="curve" smooth="yes"/>
      <point x="1112" y="-13" type="line" smooth="no"/>
      <point x="982" y="-80"/>
      <point x="842" y="-105"/>
      <point x="664" y="-105" type="curve" smooth="yes"/>
      <point x="357" y="-105"/>
      <point x="106" y="0"/>
      <point x="106" y="285" type="curve" smooth="yes"/>
      <point x="106" y="371"/>
      <point x="112" y="640"/>
      <point x="584" y="776" type="curve" smooth="no"/>
      <point x="584" y="1030" type="line" smooth="no"/>
      <point x="905" y="1030" type="line" smooth="no"/>
      <point x="905" y="621" type="line" smooth="no"/>
      <point x="738.455" y="550.876"/>
      <point x="444" y="507.631"/>
    </contour>
    <contour>
      <point x="728" y="1519" type="curve" smooth="yes"/>
      <point x="836.904" y="1519"/>
      <point x="917" y="1433.28"/>
      <point x="917" y="1325" type="curve" smooth="yes"/>
      <point x="917" y="1216"/>
      <point x="839" y="1131"/>
      <point x="728" y="1131" type="curve" smooth="yes"/>
      <point x="618" y="1131"/>
      <point x="539" y="1214"/>
      <point x="539" y="1325" type="curve" smooth="yes"/>
      <point x="539" y="1435"/>
      <point x="619" y="1519"/>
    </contour>
  </outline>
</glyph>
<glyph name="Eth" format="1">
  <advance width="1477"/>
  <unicode hex="00d0"/>
  <outline>
    <contour>
      <point x="1447" y="782" type="curve" smooth="yes"/>
      <point x="1447" y="281"/>
      <point x="1194" y="0"/>
      <point x="639" y="0" type="curve" smooth="yes"/>
      <point x="139" y="0" type="line" smooth="no"/>
      <point x="139" y="684" type="line" smooth="no"/>
      <point x="-20" y="684" type="line" smooth="no"/>
      <point x="-20" y="916" type="line" smooth="no"/>
      <point x="139" y="916" type="line" smooth="no"/>
      <point x="139" y="1578" type="line" smooth="no"/>
      <point x="639" y="1578" type="line" smooth="yes"/>
      <point x="1178" y="1578"/>
      <point x="1447" y="1313"/>
    </contour>
    <contour>
      <point x="1077" y="784" type="curve" smooth="yes"/>
      <point x="1077" y="1111"/>
      <point x="1029" y="1326"/>
      <point x="600" y="1326" type="curve" smooth="yes"/>
      <point x="508" y="1326" type="line" smooth="no"/>
      <point x="508" y="916" type="line" smooth="no"/>
      <point x="771" y="916" type="line" smooth="no"/>
      <point x="771" y="684" type="line" smooth="no"/>
      <point x="508" y="684" type="line" smooth="no"/>
      <point x="508" y="254" type="line" smooth="no"/>
      <point x="600" y="254" type="line" smooth="yes"/>
      <point x="1020" y="254"/>
      <point x="1077" y="458"/>
    </contour>
  </outline>
</glyph>
<glyph name="Oslash" format="1">
  <advance width="1565"/>
  <unicode hex="00d8"/>
  <outline>
    <contour>
      <point x="554" y="344" type="curve" smooth="yes"/>
      <point x="566" y="329" type="line" smooth="no"/>
      <point x="959" y="1295" type="line" smooth="no"/>
      <point x="930" y="1310" type="line" smooth="yes"/>
      <point x="891" y="1330"/>
      <point x="843" y="1339"/>
      <point x="791" y="1339" type="curve" smooth="yes"/>
      <point x="526" y="1339"/>
      <point x="450" y="1102"/>
      <point x="450" y="789" type="curve" smooth="yes"/>
      <point x="450" y="609"/>
      <point x="473" y="445"/>
    </contour>
    <contour>
      <point x="1063" y="1180" type="curve" smooth="no"/>
      <point x="689" y="252" type="line" smooth="no"/>
      <point x="720" y="243"/>
      <point x="754" y="238"/>
      <point x="791" y="238" type="curve" smooth="yes"/>
      <point x="1063" y="238"/>
      <point x="1132" y="487"/>
      <point x="1132" y="789" type="curve" smooth="yes"/>
      <point x="1132" y="946"/>
      <point x="1117" y="1072"/>
    </contour>
    <contour>
      <point x="449" y="40" type="line" smooth="no"/>
      <point x="198" y="157"/>
      <point x="81" y="424"/>
      <point x="81" y="789" type="curve" smooth="yes"/>
      <point x="81" y="1302"/>
      <point x="314" y="1605"/>
      <point x="791" y="1605" type="curve" smooth="yes"/>
      <point x="895" y="1605"/>
      <point x="987" y="1591"/>
      <point x="1068" y="1564" type="curve" smooth="no"/>
      <point x="1139" y="1739" type="line" smooth="no"/>
      <point x="1270" y="1694" type="line" smooth="no"/>
      <point x="1194" y="1505" type="line" smooth="no"/>
      <point x="1398" y="1376"/>
      <point x="1501" y="1125"/>
      <point x="1501" y="789" type="curve" smooth="yes"/>
      <point x="1501" y="288"/>
      <point x="1280" y="-28"/>
      <point x="791" y="-28" type="curve" smooth="yes"/>
      <point x="716" y="-28"/>
      <point x="647" y="-21"/>
      <point x="584" y="-6" type="curve" smooth="no"/>
      <point x="519" y="-168" type="line" smooth="no"/>
      <point x="383" y="-123" type="line" smooth="no"/>
    </contour>
  </outline>
</glyph>
<glyph name="germandbls" format="1">
  <advance width="1564"/>
  <unicode hex="00df"/>
  <outline>
    <contour>
      <point x="660" y="689" type="curve" smooth="no"/>
      <point x="660" y="689"/>
      <point x="659" y="762"/>
      <point x="658" y="907" type="curve" smooth="no"/>
      <point x="715" y="907" type="line" smooth="yes"/>
      <point x="911" y="907"/>
      <point x="1021" y="970"/>
      <point x="1021" y="1135" type="curve" smooth="yes"/>
      <point x="1021" y="1253"/>
      <point x="981" y="1334"/>
      <point x="764" y="1334" type="curve" smooth="yes"/>
      <point x="565" y="1334"/>
      <point x="510" y="1239"/>
      <point x="510" y="980" type="curve" smooth="yes"/>
      <point x="510" y="0" type="line" smooth="no"/>
      <point x="139" y="0" type="line" smooth="no"/>
      <point x="139" y="980" type="line" smooth="yes"/>
      <point x="139" y="1369"/>
      <point x="325" y="1579"/>
      <point x="764" y="1579" type="curve" smooth="no"/>
      <point x="1260" y="1576"/>
      <point x="1344" y="1322"/>
      <point x="1344" y="1157" type="curve" smooth="yes"/>
      <point x="1344" y="996"/>
      <point x="1253" y="849"/>
      <point x="1009" y="819" type="curve" smooth="no"/>
      <point x="1338" y="786"/>
      <point x="1503" y="631"/>
      <point x="1503" y="355" type="curve" smooth="yes"/>
      <point x="1503" y="352" type="line" smooth="yes"/>
      <point x="1503" y="-29"/>
      <point x="1079" y="-197"/>
      <point x="630" y="-197" type="curve" smooth="no"/>
      <point x="629" y="84" type="line" smooth="no"/>
      <point x="1031" y="114"/>
      <point x="1137" y="209"/>
      <point x="1137" y="364" type="curve" smooth="yes"/>
      <point x="1137" y="581"/>
      <point x="978" y="689"/>
    </contour>
  </outline>
</glyph>
<glyph name="ae" format="1">
  <advance width="1840"/>
  <unicode hex="00e6"/>
  <outline>
    <contour>
      <point x="400" y="385" type="curve" smooth="yes"/>
      <point x="400" y="280"/>
      <point x="461" y="217"/>
      <point x="556" y="217" type="curve" smooth="yes"/>
      <point x="631" y="217"/>
      <point x="693" y="253"/>
      <point x="757" y="310" type="curve" smooth="no"/>
      <point x="757" y="539" type="line" smooth="no"/>
      <point x="716" y="544"/>
      <point x="679" y="547"/>
      <point x="647" y="547" type="curve" smooth="yes"/>
      <point x="474" y="547"/>
      <point x="400" y="504"/>
    </contour>
    <contour>
      <point x="1635" y="314" type="curve" smooth="no"/>
      <point x="1701" y="80" type="line" smooth="no"/>
      <point x="1574" y="16"/>
      <point x="1436" y="-16"/>
      <point x="1284" y="-16" type="curve" smooth="yes"/>
      <point x="1087" y="-16"/>
      <point x="975" y="49"/>
      <point x="898" y="200" type="curve" smooth="no"/>
      <point x="802" y="37"/>
      <point x="634" y="-18"/>
      <point x="471" y="-18" type="curve" smooth="yes"/>
      <point x="215" y="-18"/>
      <point x="72" y="118"/>
      <point x="72" y="373" type="curve" smooth="yes"/>
      <point x="72" y="664"/>
      <point x="327" y="729"/>
      <point x="604" y="729" type="curve" smooth="yes"/>
      <point x="663" y="729"/>
      <point x="714" y="725"/>
      <point x="757" y="717" type="curve" smooth="no"/>
      <point x="757" y="834"/>
      <point x="753" y="936"/>
      <point x="598" y="936" type="curve" smooth="no"/>
      <point x="451.158" y="934.588"/>
      <point x="312.173" y="890.438"/>
      <point x="197" y="855" type="curve" smooth="no"/>
      <point x="149" y="1073" type="line" smooth="no"/>
      <point x="252" y="1139"/>
      <point x="454" y="1186"/>
      <point x="610" y="1186" type="curve" smooth="yes"/>
      <point x="777" y="1186"/>
      <point x="890" y="1137"/>
      <point x="951" y="1038" type="curve" smooth="no"/>
      <point x="1019" y="1139"/>
      <point x="1146" y="1186"/>
      <point x="1290" y="1186" type="curve" smooth="yes"/>
      <point x="1587" y="1186"/>
      <point x="1759" y="974"/>
      <point x="1759" y="666" type="curve" smooth="yes"/>
      <point x="1759" y="502" type="line" smooth="no"/>
      <point x="1085" y="502" type="line" smooth="no"/>
      <point x="1085" y="499" type="line" smooth="no"/>
      <point x="1091" y="336"/>
      <point x="1184" y="222"/>
      <point x="1349" y="222" type="curve" smooth="yes"/>
      <point x="1456" y="222"/>
      <point x="1552" y="254"/>
    </contour>
    <contour>
      <point x="1475" y="676" type="line" smooth="no"/>
      <point x="1475" y="843"/>
      <point x="1418" y="950"/>
      <point x="1284" y="950" type="curve" smooth="yes"/>
      <point x="1152" y="950"/>
      <point x="1093" y="831"/>
      <point x="1085" y="702" type="curve" smooth="no"/>
      <point x="1085" y="676" type="line" smooth="no"/>
    </contour>
  </outline>
</glyph>
<glyph name="Hbar" format="1">
  <advance width="1591"/>
  <unicode hex="0126"/>
  <outline>
    <contour>
      <point x="1076" y="0" type="line" smooth="no"/>
      <point x="1076" y="704" type="line" smooth="no"/>
      <point x="515" y="704" type="line" smooth="no"/>
      <point x="515" y="0" type="line" smooth="no"/>
      <point x="146" y="0" type="line" smooth="no"/>
      <point x="146" y="1188" type="line" smooth="no"/>
      <point x="-1" y="1188" type="line" smooth="no"/>
      <point x="-1" y="1350" type="line" smooth="no"/>
      <point x="146" y="1350" type="line" smooth="no"/>
      <point x="146" y="1578" type="line" smooth="no"/>
      <point x="515" y="1578" type="line" smooth="no"/>
      <point x="515" y="1350" type="line" smooth="no"/>
      <point x="1076" y="1350" type="line" smooth="no"/>
      <point x="1076" y="1578" type="line" smooth="no"/>
      <point x="1445" y="1578" type="line" smooth="no"/>
      <point x="1445" y="1350" type="line" smooth="no"/>
      <point x="1591" y="1350" type="line" smooth="no"/>
      <point x="1591" y="1188" type="line" smooth="no"/>
      <point x="1445" y="1188" type="line" smooth="no"/>
      <point x="1445" y="0" type="line" smooth="no"/>
    </contour>
    <contour>
      <point x="515" y="1188" type="line" smooth="no"/>
      <point x="515" y="930" type="line" smooth="no"/>
      <point x="1076" y="930" type="line" smooth="no"/>
      <point x="1076" y="1188" type="line" smooth="no"/>
    </contour>
  </outline>
</glyph>
<glyph name="hbar" format="1">
  <advance width="1343"/>
  <unicode hex="0127"/>
  <outline>
    <contour>
      <point x="137" y="1298" type="line" smooth="no"/>
      <point x="-1" y="1298" type="line" smooth="no"/>
      <point x="-1" y="1460" type="line" smooth="no"/>
      <point x="137" y="1460" type="line" smooth="no"/>
      <point x="137" y="1578" type="line" smooth="no"/>
      <point x="487" y="1638" type="line" smooth="no"/>
      <point x="487" y="1460" type="line" smooth="no"/>
      <point x="793" y="1460" type="line" smooth="no"/>
      <point x="793" y="1298" type="line" smooth="no"/>
      <point x="487" y="1298" type="line" smooth="no"/>
      <point x="487" y="1057" type="line" smooth="no"/>
      <point x="548" y="1140"/>
      <point x="677" y="1196"/>
      <point x="810" y="1196" type="curve" smooth="yes"/>
      <point x="1008" y="1196"/>
      <point x="1215" y="1071"/>
      <point x="1215" y="723" type="curve" smooth="yes"/>
      <point x="1215" y="0" type="line" smooth="no"/>
      <point x="865" y="0" type="line" smooth="no"/>
      <point x="865" y="747" type="line" smooth="yes"/>
      <point x="865" y="888"/>
      <point x="790" y="962"/>
      <point x="701" y="962" type="curve" smooth="yes"/>
      <point x="562" y="962"/>
      <point x="487" y="884"/>
      <point x="487" y="884" type="curve" smooth="no"/>
      <point x="487" y="0" type="line" smooth="no"/>
      <point x="137" y="0" type="line" smooth="no"/>
    </contour>
  </outline>
</glyph>
<glyph name="kgreenlandic" format="1">
  <advance width="1309"/>
  <unicode hex="0138"/>
  <outline>
    <contour>
      <point x="488" y="395" type="line" smooth="no"/>
      <point x="488" y="0" type="line" smooth="no"/>
      <point x="137" y="0" type="line" smooth="no"/>
      <point x="137" y="1160" type="line" smooth="no"/>
      <point x="488" y="1160" type="line" smooth="no"/>
      <point x="488" y="696" type="line" smooth="no"/>
      <point x="915" y="1160" type="line" smooth="no"/>
      <point x="1319" y="1160" type="line" smooth="no"/>
      <point x="807" y="645" type="line" smooth="no"/>
      <point x="1319" y="0" type="line" smooth="no"/>
      <point x="914" y="0" type="line" smooth="no"/>
      <point x="580" y="482" type="line" smooth="no"/>
    </contour>
  </outline>
</glyph>
<glyph name="lslash" format="1">
  <advance width="643"/>
  <unicode hex="0142"/>
  <outline>
    <contour>
      <point x="-3" y="649" type="line" smooth="no"/>
      <point x="-3" y="911" type="line" smooth="no"/>
      <point x="152" y="987.543" type="line" smooth="no"/>
      <point x="152" y="1578" type="line" smooth="no"/>
      <point x="503" y="1638" type="line" smooth="no"/>
      <point x="503" y="1160.88" type="line" smooth="no"/>
      <point x="645" y="1231" type="line" smooth="no"/>
      <point x="645" y="969" type="line" smooth="no"/>
      <point x="503" y="898.877" type="line" smooth="no"/>
      <point x="503" y="0" type="line" smooth="no"/>
      <point x="152" y="0" type="line" smooth="no"/>
      <point x="152" y="725.543" type="line" smooth="no"/>
    </contour>
  </outline>
</glyph>
<glyph name="oe" format="1">
  <advance width="1993"/>
  <unicode hex="0153"/>
  <outline>
    <contour>
      <point x="638" y="208" type="curve" smooth="yes"/>
      <point x="788" y="208"/>
      <point x="858" y="326"/>
      <point x="858" y="584" type="curve" smooth="yes"/>
      <point x="858" y="842"/>
      <point x="788" y="960"/>
      <point x="638" y="960" type="curve" smooth="yes"/>
      <point x="488" y="960"/>
      <point x="418" y="842"/>
      <point x="418" y="584" type="curve" smooth="yes"/>
      <point x="418" y="423"/>
      <point x="443" y="208"/>
    </contour>
    <contour>
      <point x="1788" y="304" type="curve" smooth="no"/>
      <point x="1854" y="70" type="line" smooth="no"/>
      <point x="1731" y="7"/>
      <point x="1599" y="-26"/>
      <point x="1465" y="-26" type="curve" smooth="yes"/>
      <point x="1282.31" y="-26"/>
      <point x="1129.42" y="26.9753"/>
      <point x="1022.78" y="126.242" type="curve" smooth="no"/>
      <point x="933.593" y="27.3241"/>
      <point x="804.082" y="-26"/>
      <point x="638" y="-26" type="curve" smooth="yes"/>
      <point x="271" y="-26"/>
      <point x="68" y="199"/>
      <point x="68" y="582" type="curve" smooth="yes"/>
      <point x="68" y="970"/>
      <point x="274" y="1196"/>
      <point x="637" y="1196" type="curve" smooth="yes"/>
      <point x="804.269" y="1196"/>
      <point x="935.942" y="1140.17"/>
      <point x="1026.08" y="1036.38" type="curve" smooth="no"/>
      <point x="1121.59" y="1136.92"/>
      <point x="1256.96" y="1196"/>
      <point x="1430" y="1196" type="curve" smooth="yes"/>
      <point x="1743" y="1196"/>
      <point x="1909" y="979"/>
      <point x="1909" y="666" type="curve" smooth="yes"/>
      <point x="1909" y="502" type="line" smooth="no"/>
      <point x="1218" y="502" type="line" smooth="no"/>
      <point x="1224" y="325"/>
      <point x="1326" y="212"/>
      <point x="1492" y="212" type="curve" smooth="yes"/>
      <point x="1606" y="212"/>
      <point x="1705" y="244"/>
    </contour>
    <contour>
      <point x="1635" y="676" type="line" smooth="no"/>
      <point x="1635" y="865"/>
      <point x="1568" y="960"/>
      <point x="1424" y="960" type="curve" smooth="yes"/>
      <point x="1282" y="960"/>
      <point x="1207" y="839"/>
      <point x="1207" y="676" type="curve" smooth="no"/>
    </contour>
  </outline>
</glyph>
<glyph name="florin" format="1">
  <advance width="1279"/>
  <unicode hex="0192"/>
  <outline>
    <contour>
      <point x="1039.76" y="1403" type="curve" smooth="yes"/>
      <point x="948.756" y="1403"/>
      <point x="896.765" y="1346"/>
      <point x="877.636" y="1164" type="curve" smooth="no"/>
      <point x="1157.64" y="1164" type="line" smooth="no"/>
      <point x="1140.82" y="1004" type="line" smooth="no"/>
      <point x="859.818" y="1004" type="line" smooth="no"/>
      <point x="754.294" y="0" type="line" smooth="yes"/>
      <point x="720.136" y="-325"/>
      <point x="570.952" y="-498"/>
      <point x="293.952" y="-498" type="curve" smooth="yes"/>
      <point x="217.952" y="-498"/>
      <point x="143.108" y="-487"/>
      <point x="68" y="-469" type="curve" smooth="no"/>
      <point x="94.8018" y="-214" type="line" smooth="no"/>
      <point x="138.015" y="-231"/>
      <point x="186.174" y="-239"/>
      <point x="241.174" y="-239" type="curve" smooth="yes"/>
      <point x="332.174" y="-239"/>
      <point x="384.165" y="-182"/>
      <point x="403.294" y="0" type="curve" smooth="no"/>
      <point x="404.294" y="0" type="line" smooth="no"/>
      <point x="509.818" y="1004" type="line" smooth="no"/>
      <point x="319.818" y="1004" type="line" smooth="no"/>
      <point x="336.636" y="1164" type="line" smooth="no"/>
      <point x="526.636" y="1164" type="line" smooth="no"/>
      <point x="560.794" y="1489"/>
      <point x="709.978" y="1662"/>
      <point x="986.978" y="1662" type="curve" smooth="yes"/>
      <point x="1062.98" y="1662"/>
      <point x="1137.82" y="1651"/>
      <point x="1212.93" y="1633" type="curve" smooth="no"/>
      <point x="1186.13" y="1378" type="line" smooth="no"/>
      <point x="1142.92" y="1395"/>
      <point x="1094.76" y="1403"/>
    </contour>
  </outline>
</glyph>
<glyph name="circumflex" format="1">
  <advance width="1229"/>
  <unicode hex="02c6"/>
  <outline>
    <contour>
      <point x="487" y="1917" type="line" smooth="no"/>
      <point x="741" y="1917" type="line" smooth="no"/>
      <point x="999" y="1298" type="line" smooth="no"/>
      <point x="725" y="1298" type="line" smooth="no"/>
      <point x="613" y="1682" type="line" smooth="no"/>
      <point x="501" y="1298" type="line" smooth="no"/>
      <point x="229" y="1298" type="line" smooth="no"/>
    </contour>
  </outline>
</glyph>
<glyph name="caron" format="1">
  <advance width="1229"/>
  <unicode hex="02c7"/>
  <outline>
    <contour>
      <point x="487" y="1298" type="line" smooth="no"/>
      <point x="229" y="1917" type="line" smooth="no"/>
      <point x="501" y="1917" type="line" smooth="no"/>
      <point x="613" y="1533" type="line" smooth="no"/>
      <point x="725" y="1917" type="line" smooth="no"/>
      <point x="999" y="1917" type="line" smooth="no"/>
      <point x="741" y="1298" type="line" smooth="no"/>
    </contour>
  </outline>
</glyph>
<glyph name="uni02C9" format="1">
  <advance width="1003"/>
  <unicode hex="02c9"/>
  <outline>
    <contour>
      <point x="842" y="98" type="line" smooth="no"/>
      <point x="160" y="98" type="line" smooth="no"/>
      <point x="160" y="285" type="line" smooth="no"/>
      <point x="842" y="285" type="line" smooth="no"/>
    </contour>
  </outline>
</glyph>
<glyph name="breve" format="1">
  <advance width="647"/>
  <unicode hex="02d8"/>
  <outline>
    <contour>
      <point x="334" y="1298" type="curve" smooth="yes"/>
      <point x="159" y="1298"/>
      <point x="-13" y="1412"/>
      <point x="-24" y="1638" type="curve" smooth="no"/>
      <point x="197" y="1638" type="line" smooth="no"/>
      <point x="199" y="1541"/>
      <point x="267" y="1487"/>
      <point x="334" y="1487" type="curve" smooth="yes"/>
      <point x="405" y="1487"/>
      <point x="473" y="1541"/>
      <point x="474" y="1638" type="curve" smooth="no"/>
      <point x="696" y="1638" type="line" smooth="no"/>
      <point x="685" y="1412"/>
      <point x="513" y="1298"/>
    </contour>
  </outline>
</glyph>
<glyph name="dotaccent" format="1">
  <advance width="571"/>
  <unicode hex="02d9"/>
  <outline>
    <contour>
      <point x="98" y="1492" type="curve" smooth="yes"/>
      <point x="98" y="1601"/>
      <point x="182" y="1686"/>
      <point x="291" y="1686" type="curve" smooth="yes"/>
      <point x="399" y="1686"/>
      <point x="487" y="1601"/>
      <point x="487" y="1492" type="curve" smooth="yes"/>
      <point x="487" y="1382"/>
      <point x="400" y="1298"/>
      <point x="291" y="1298" type="curve" smooth="yes"/>
      <point x="179" y="1298"/>
      <point x="98" y="1386"/>
    </contour>
  </outline>
</glyph>
<glyph name="ring" format="1">
  <advance width="928"/>
  <unicode hex="02da"/>
  <outline>
    <contour>
      <point x="284" y="1606" type="curve" smooth="yes"/>
      <point x="284" y="1506"/>
      <point x="366" y="1430"/>
      <point x="464" y="1430" type="curve" smooth="yes"/>
      <point x="562" y="1430"/>
      <point x="644" y="1506"/>
      <point x="644" y="1606" type="curve" smooth="yes"/>
      <point x="644" y="1708"/>
      <point x="560" y="1783"/>
      <point x="464" y="1783" type="curve" smooth="yes"/>
      <point x="363" y="1783"/>
      <point x="284" y="1702"/>
    </contour>
    <contour>
      <point x="465" y="1946" type="curve" smooth="yes"/>
      <point x="660" y="1946"/>
      <point x="829" y="1801"/>
      <point x="829" y="1602" type="curve" smooth="yes"/>
      <point x="829" y="1400"/>
      <point x="646" y="1267"/>
      <point x="454" y="1267" type="curve" smooth="yes"/>
      <point x="263" y="1267"/>
      <point x="99" y="1421"/>
      <point x="99" y="1611" type="curve" smooth="yes"/>
      <point x="99" y="1805"/>
      <point x="278" y="1946"/>
    </contour>
  </outline>
</glyph>
<glyph name="ogonek" format="1">
  <advance width="560"/>
  <unicode hex="02db"/>
  <outline>
    <contour>
      <point x="478" y="-475" type="line" smooth="no"/>
      <point x="429" y="-501"/>
      <point x="375" y="-513"/>
      <point x="323" y="-513" type="curve" smooth="yes"/>
      <point x="198" y="-513"/>
      <point x="85" y="-447"/>
      <point x="85" y="-323" type="curve" smooth="yes"/>
      <point x="85" y="-210"/>
      <point x="190" y="-55"/>
      <point x="277" y="0" type="curve" smooth="no"/>
      <point x="418" y="0" type="line" smooth="no"/>
      <point x="366" y="-39"/>
      <point x="268" y="-174"/>
      <point x="268" y="-261" type="curve" smooth="yes"/>
      <point x="268" y="-323"/>
      <point x="317" y="-343"/>
      <point x="370" y="-343" type="curve" smooth="yes"/>
      <point x="411" y="-343"/>
      <point x="454" y="-331"/>
      <point x="478" y="-318" type="curve" smooth="no"/>
    </contour>
  </outline>
</glyph>
<glyph name="hungarumlaut" format="1">
  <advance width="1097"/>
  <unicode hex="02dd"/>
  <outline>
    <contour>
      <point x="378" y="1298" type="line" smooth="no"/>
      <point x="261" y="1372" type="line" smooth="no"/>
      <point x="424" y="1985" type="line" smooth="no"/>
      <point x="696" y="1840" type="line" smooth="no"/>
    </contour>
    <contour>
      <point x="768" y="1298" type="line" smooth="no"/>
      <point x="641" y="1372" type="line" smooth="no"/>
      <point x="884" y="1985" type="line" smooth="no"/>
      <point x="1166" y="1840" type="line" smooth="no"/>
    </contour>
  </outline>
</glyph>
<glyph name="uni030F" format="1">
  <advance width="1097"/>
  <unicode hex="030f"/>
  <outline>
    <contour>
      <point x="-100" y="1840" type="line" smooth="no"/>
      <point x="182" y="1985" type="line" smooth="no"/>
      <point x="425" y="1372" type="line" smooth="no"/>
      <point x="298" y="1298" type="line" smooth="no"/>
    </contour>
    <contour>
      <point x="370" y="1840" type="line" smooth="no"/>
      <point x="642" y="1985" type="line" smooth="no"/>
      <point x="805" y="1372" type="line" smooth="no"/>
      <point x="688" y="1298" type="line" smooth="no"/>
    </contour>
  </outline>
</glyph>
<glyph name="commaaccent" format="1">
  <advance width="722"/>
  <unicode hex="0326"/>
  <outline>
    <contour>
      <point x="162" y="-527" type="line" smooth="no"/>
      <point x="162" y="-112" type="line" smooth="no"/>
      <point x="580" y="-112" type="line" smooth="no"/>
      <point x="580" y="-474" type="line" smooth="yes"/>
      <point x="580" y="-714"/>
      <point x="393" y="-784"/>
      <point x="225" y="-834" type="curve" smooth="no"/>
      <point x="163" y="-720" type="line" smooth="no"/>
      <point x="290" y="-674"/>
      <point x="340" y="-629"/>
      <point x="340" y="-527" type="curve" smooth="no"/>
    </contour>
    <contour>
      <point x="371" y="0" type="move" smooth="yes"/>
    </contour>
  </outline>
</glyph>
<glyph name="mu" format="1">
  <advance width="1351"/>
  <unicode hex="03bc"/>
  <outline>
    <contour>
      <point x="489" y="277" type="line" smooth="no"/>
      <point x="515.82" y="263.59"/>
      <point x="606.006" y="219"/>
      <point x="679" y="219" type="curve" smooth="yes"/>
      <point x="765" y="219"/>
      <point x="833" y="249"/>
      <point x="874" y="296" type="curve" smooth="no"/>
      <point x="874" y="1161" type="line" smooth="no"/>
      <point x="1226" y="1161" type="line" smooth="no"/>
      <point x="1226" y="1" type="line" smooth="no"/>
      <point x="978" y="1" type="line" smooth="no"/>
      <point x="900" y="168" type="line" smooth="no"/>
      <point x="877" y="88"/>
      <point x="793" y="-15"/>
      <point x="620" y="-15" type="curve" smooth="yes"/>
      <point x="563" y="-15"/>
      <point x="489" y="12"/>
      <point x="489" y="16" type="curve" smooth="yes"/>
      <point x="489" y="-488" type="line" smooth="no"/>
      <point x="139" y="-428" type="line" smooth="no"/>
      <point x="139" y="1161" type="line" smooth="no"/>
      <point x="489" y="1161" type="line" smooth="no"/>
    </contour>
  </outline>
</glyph>
<glyph name="endash" format="1">
  <advance width="1024"/>
  <unicode hex="2013"/>
  <outline>
    <contour>
      <point x="156" y="574" type="line" smooth="no"/>
      <point x="156" y="836" type="line" smooth="no"/>
      <point x="854" y="836" type="line" smooth="no"/>
      <point x="854" y="574" type="line" smooth="no"/>
    </contour>
  </outline>
</glyph>
<glyph name="quoteright" format="1">
  <advance width="539"/>
  <unicode hex="2019"/>
  <outline>
    <contour>
      <point x="59" y="1163" type="line" smooth="no"/>
      <point x="59" y="1578" type="line" smooth="no"/>
      <point x="477" y="1578" type="line" smooth="no"/>
      <point x="477" y="1216" type="line" smooth="yes"/>
      <point x="477" y="980"/>
      <point x="296" y="907"/>
      <point x="122" y="856" type="curve" smooth="no"/>
      <point x="60" y="970" type="line" smooth="no"/>
      <point x="187" y="1016"/>
      <point x="237" y="1061"/>
      <point x="237" y="1163" type="curve" smooth="no"/>
    </contour>
  </outline>
</glyph>
<glyph name="quotedblleft" format="1">
  <advance width="1170"/>
  <unicode hex="201c"/>
  <outline>
    <contour>
      <point x="517" y="1271" type="line" smooth="no"/>
      <point x="517" y="856" type="line" smooth="no"/>
      <point x="99" y="856" type="line" smooth="no"/>
      <point x="99" y="1218" type="line" smooth="yes"/>
      <point x="99" y="1457"/>
      <point x="286" y="1528"/>
      <point x="454" y="1578" type="curve" smooth="no"/>
      <point x="516" y="1464" type="line" smooth="no"/>
      <point x="389" y="1417"/>
      <point x="339" y="1372"/>
      <point x="339" y="1271" type="curve" smooth="no"/>
    </contour>
    <contour>
      <point x="1041" y="1271" type="line" smooth="no"/>
      <point x="1041" y="856" type="line" smooth="no"/>
      <point x="623" y="856" type="line" smooth="no"/>
      <point x="623" y="1218" type="line" smooth="yes"/>
      <point x="623" y="1457"/>
      <point x="810" y="1528"/>
      <point x="978" y="1578" type="curve" smooth="no"/>
      <point x="1040" y="1464" type="line" smooth="no"/>
      <point x="913" y="1417"/>
      <point x="863" y="1372"/>
      <point x="863" y="1271" type="curve" smooth="no"/>
    </contour>
  </outline>
</glyph>
<glyph name="quotedblbase" format="1">
  <advance width="1137"/>
  <unicode hex="201e"/>
  <outline>
    <contour>
      <point x="651" y="0" type="line" smooth="no"/>
      <point x="651" y="415" type="line" smooth="no"/>
      <point x="1069" y="415" type="line" smooth="no"/>
      <point x="1069" y="53" type="line" smooth="yes"/>
      <point x="1069" y="-187"/>
      <point x="882" y="-257"/>
      <point x="714" y="-307" type="curve" smooth="no"/>
      <point x="652" y="-193" type="line" smooth="no"/>
      <point x="779" y="-147"/>
      <point x="829" y="-102"/>
      <point x="829" y="0" type="curve" smooth="no"/>
    </contour>
    <contour>
      <point x="127" y="0" type="line" smooth="no"/>
      <point x="127" y="415" type="line" smooth="no"/>
      <point x="545" y="415" type="line" smooth="no"/>
      <point x="545" y="53" type="line" smooth="yes"/>
      <point x="545" y="-187"/>
      <point x="358" y="-257"/>
      <point x="190" y="-307" type="curve" smooth="no"/>
      <point x="128" y="-193" type="line" smooth="no"/>
      <point x="255" y="-147"/>
      <point x="305" y="-102"/>
      <point x="305" y="0" type="curve" smooth="no"/>
    </contour>
  </outline>
</glyph>
<glyph name="daggerdbl" format="1">
  <advance width="1157"/>
  <unicode hex="2021"/>
  <outline>
    <contour>
      <point x="397" y="975" type="line" smooth="no"/>
      <point x="-12" y="975" type="line" smooth="no"/>
      <point x="-12" y="1243" type="line" smooth="no"/>
      <point x="397" y="1243" type="line" smooth="no"/>
      <point x="397" y="1641.2" type="line" smooth="no"/>
      <point x="766" y="1641.2" type="line" smooth="no"/>
      <point x="766" y="1243" type="line" smooth="no"/>
      <point x="1168" y="1243" type="line" smooth="no"/>
      <point x="1168" y="975" type="line" smooth="no"/>
      <point x="766" y="975" type="line" smooth="no"/>
      <point x="766" y="639.88" type="line" smooth="no"/>
      <point x="1168" y="639.88" type="line" smooth="no"/>
      <point x="1168" y="371.88" type="line" smooth="no"/>
      <point x="766" y="371.88" type="line" smooth="no"/>
      <point x="766" y="0" type="line" smooth="no"/>
      <point x="397" y="0" type="line" smooth="no"/>
      <point x="397" y="371.88" type="line" smooth="no"/>
      <point x="-12" y="371.88" type="line" smooth="no"/>
      <point x="-12" y="639.88" type="line" smooth="no"/>
      <point x="397" y="639.88" type="line" smooth="no"/>
    </contour>
  </outline>
</glyph>
<glyph name="ellipsis" format="1">
  <advance width="1673"/>
  <unicode hex="2026"/>
  <outline>
    <contour>
      <point x="291" y="0" type="curve" smooth="yes"/>
      <point x="180.78" y="0"/>
      <point x="98" y="83.8026"/>
      <point x="98" y="194" type="curve" smooth="yes"/>
      <point x="98" y="303"/>
      <point x="182" y="388"/>
      <point x="291" y="388" type="curve" smooth="yes"/>
      <point x="399" y="388"/>
      <point x="487" y="303"/>
      <point x="487" y="194" type="curve" smooth="yes"/>
      <point x="487" y="84"/>
      <point x="400" y="0"/>
    </contour>
    <contour>
      <point x="833" y="0" type="curve" smooth="yes"/>
      <point x="722.78" y="0"/>
      <point x="640" y="83.8026"/>
      <point x="640" y="194" type="curve" smooth="yes"/>
      <point x="640" y="303"/>
      <point x="724" y="388"/>
      <point x="833" y="388" type="curve" smooth="yes"/>
      <point x="941" y="388"/>
      <point x="1029" y="303"/>
      <point x="1029" y="194" type="curve" smooth="yes"/>
      <point x="1029" y="84"/>
      <point x="942" y="0"/>
    </contour>
    <contour>
      <point x="1393" y="0" type="curve" smooth="yes"/>
      <point x="1282.78" y="0"/>
      <point x="1200" y="83.8026"/>
      <point x="1200" y="194" type="curve" smooth="yes"/>
      <point x="1200" y="303"/>
      <point x="1284" y="388"/>
      <point x="1393" y="388" type="curve" smooth="yes"/>
      <point x="1501" y="388"/>
      <point x="1589" y="303"/>
      <point x="1589" y="194" type="curve" smooth="yes"/>
      <point x="1589" y="84"/>
      <point x="1502" y="0"/>
    </contour>
  </outline>
</glyph>
<glyph name="guilsinglleft" format="1">
  <advance width="1194"/>
  <unicode hex="2039"/>
  <outline>
    <contour>
      <point x="132" y="476" type="line" smooth="no"/>
      <point x="132" y="712" type="line" smooth="no"/>
      <point x="972" y="1225" type="line" smooth="no"/>
      <point x="972" y="924" type="line" smooth="no"/>
      <point x="427" y="594" type="line" smooth="no"/>
      <point x="973" y="264" type="line" smooth="no"/>
      <point x="973" y="-37" type="line" smooth="no"/>
    </contour>
  </outline>
</glyph>
<glyph name="fraction" format="1">
  <advance width="915"/>
  <unicode hex="2044"/>
  <outline>
    <contour>
      <point x="85" y="-60" type="line" smooth="no"/>
      <point x="656" y="1667" type="line" smooth="no"/>
      <point x="937" y="1578" type="line" smooth="no"/>
      <point x="361" y="-147" type="line" smooth="no"/>
    </contour>
  </outline>
</glyph>
<glyph name="uni2074" format="1">
  <advance width="1144"/>
  <unicode hex="2074"/>
  <outline>
    <contour>
      <point x="655" y="1644" type="line" smooth="no"/>
      <point x="862" y="1591" type="line" smooth="no"/>
      <point x="862" y="924" type="line" smooth="no"/>
      <point x="1001" y="924" type="line" smooth="no"/>
      <point x="1001" y="717" type="line" smooth="no"/>
      <point x="862" y="717" type="line" smooth="no"/>
      <point x="862" y="496" type="line" smooth="no"/>
      <point x="618" y="496" type="line" smooth="no"/>
      <point x="618" y="717" type="line" smooth="no"/>
      <point x="169" y="717" type="line" smooth="no"/>
      <point x="136" y="878" type="line" smooth="no"/>
    </contour>
    <contour>
      <point x="442" y="922" type="line" smooth="no"/>
      <point x="618" y="922" type="line" smooth="no"/>
      <point x="618" y="1218" type="line" smooth="no"/>
    </contour>
  </outline>
</glyph>
<glyph name="Euro" format="1">
  <advance width="1285"/>
  <unicode hex="20ac"/>
  <outline>
    <contour>
      <point x="508" y="743" type="curve" smooth="no"/>
      <point x="848" y="743" type="line" smooth="no"/>
      <point x="848" y="554" type="line" smooth="no"/>
      <point x="515" y="554" type="line" smooth="no"/>
      <point x="538" y="345"/>
      <point x="628" y="240"/>
      <point x="786" y="240" type="curve" smooth="yes"/>
      <point x="910.564" y="240"/>
      <point x="1020.91" y="302.246"/>
      <point x="1087" y="348" type="curve" smooth="no"/>
      <point x="1157" y="94" type="line" smooth="no"/>
      <point x="1086" y="25"/>
      <point x="944" y="-37"/>
      <point x="755" y="-37" type="curve" smooth="yes"/>
      <point x="461" y="-37"/>
      <point x="230" y="136"/>
      <point x="200" y="554" type="curve" smooth="no"/>
      <point x="67" y="554" type="line" smooth="no"/>
      <point x="67" y="743" type="line" smooth="no"/>
      <point x="195" y="743" type="line" smooth="no"/>
      <point x="196" y="793"/>
      <point x="198" y="830"/>
      <point x="200" y="855" type="curve" smooth="no"/>
      <point x="49" y="855" type="line" smooth="no"/>
      <point x="49" y="1044" type="line" smooth="no"/>
      <point x="227" y="1044" type="line" smooth="no"/>
      <point x="302" y="1383"/>
      <point x="514" y="1597"/>
      <point x="870" y="1599" type="curve" smooth="no"/>
      <point x="873" y="1599" type="line" smooth="no"/>
      <point x="1066.82" y="1600.09"/>
      <point x="1186.6" y="1529.09"/>
      <point x="1242" y="1491" type="curve" smooth="no"/>
      <point x="1159" y="1227" type="line" smooth="no"/>
      <point x="1154" y="1230"/>
      <point x="1018" y="1319"/>
      <point x="853" y="1319" type="curve" smooth="yes"/>
      <point x="713" y="1319"/>
      <point x="608" y="1220"/>
      <point x="552" y="1044" type="curve" smooth="no"/>
      <point x="913" y="1044" type="line" smooth="no"/>
      <point x="913" y="855" type="line" smooth="no"/>
      <point x="514" y="855" type="line" smooth="no"/>
      <point x="511" y="830"/>
      <point x="509" y="793"/>
    </contour>
  </outline>
</glyph>
<glyph name="uni2206" format="1">
  <advance width="1391"/>
  <unicode hex="2206"/>
  <outline>
    <contour>
      <point x="145" y="136" type="line" smooth="no"/>
      <point x="145" y="292" type="line" smooth="no"/>
      <point x="695" y="1425" type="line" smooth="no"/>
      <point x="1245" y="292" type="line" smooth="no"/>
      <point x="1245" y="136" type="line" smooth="no"/>
    </contour>
    <contour>
      <point x="695" y="1044" type="line" smooth="no"/>
      <point x="370" y="314" type="line" smooth="no"/>
      <point x="1020" y="314" type="line" smooth="no"/>
    </contour>
  </outline>
</glyph>
<glyph name="approxequal" format="1">
  <advance width="1222"/>
  <unicode hex="2248"/>
  <outline>
    <contour>
      <point x="841" y="1272" type="curve" smooth="yes"/>
      <point x="742" y="1272"/>
      <point x="494" y="1423"/>
      <point x="457" y="1423" type="curve" smooth="yes"/>
      <point x="416" y="1423"/>
      <point x="397" y="1389"/>
      <point x="397" y="1298" type="curve" smooth="no"/>
      <point x="189" y="1298" type="line" smooth="no"/>
      <point x="189" y="1519"/>
      <point x="266" y="1636"/>
      <point x="419" y="1636" type="curve" smooth="no"/>
      <point x="534" y="1645"/>
      <point x="733" y="1493"/>
      <point x="795" y="1493" type="curve" smooth="yes"/>
      <point x="842" y="1493"/>
      <point x="853" y="1513"/>
      <point x="853" y="1597" type="curve" smooth="no"/>
      <point x="1073" y="1597" type="line" smooth="no"/>
      <point x="1073" y="1402"/>
      <point x="985" y="1272"/>
    </contour>
  </outline>
</glyph>
<glyph name="notequal" format="1">
  <advance width="1299"/>
  <unicode hex="2260"/>
  <outline>
    <contour>
      <point x="636.049" y="269" type="line" smooth="no"/>
      <point x="513.2" y="-100.4" type="line" smooth="no"/>
      <point x="357.2" y="-48.4004" type="line" smooth="no"/>
      <point x="461.374" y="269" type="line" smooth="no"/>
      <point x="151" y="269" type="line" smooth="no"/>
      <point x="151" y="502" type="line" smooth="no"/>
      <point x="537.847" y="502" type="line" smooth="no"/>
      <point x="584.452" y="644" type="line" smooth="no"/>
      <point x="151" y="644" type="line" smooth="no"/>
      <point x="151" y="877" type="line" smooth="no"/>
      <point x="660.925" y="877" type="line" smooth="no"/>
      <point x="784.2" y="1252.6" type="line" smooth="no"/>
      <point x="945.2" y="1198.6" type="line" smooth="no"/>
      <point x="838.248" y="877" type="line" smooth="no"/>
      <point x="1147" y="877" type="line" smooth="no"/>
      <point x="1147" y="644" type="line" smooth="no"/>
      <point x="760.761" y="644" type="line" smooth="no"/>
      <point x="713.536" y="502" type="line" smooth="no"/>
      <point x="1147" y="502" type="line" smooth="no"/>
      <point x="1147" y="269" type="line" smooth="no"/>
    </contour>
  </outline>
</glyph>
<glyph name="greaterequal" format="1">
  <advance width="1136"/>
  <unicode hex="2265"/>
  <outline>
    <contour>
      <point x="991.6" y="0" type="line" smooth="no"/>
      <point x="148" y="0" type="line" smooth="no"/>
      <point x="148" y="212" type="line" smooth="no"/>
      <point x="991.6" y="212" type="line" smooth="no"/>
    </contour>
    <contour>
      <point x="991.6" y="703" type="line" smooth="no"/>
      <point x="150.6" y="298" type="line" smooth="no"/>
      <point x="150.6" y="599" type="line" smooth="no"/>
      <point x="736.6" y="821" type="line" smooth="no"/>
      <point x="151.6" y="1089" type="line" smooth="no"/>
      <point x="151.6" y="1390" type="line" smooth="no"/>
      <point x="991.6" y="939" type="line" smooth="no"/>
    </contour>
  </outline>
</glyph>
<glyph name="lozenge" format="1">
  <advance width="1385"/>
  <unicode hex="25ca"/>
  <outline>
    <contour>
      <point x="142" y="576" type="line" smooth="no"/>
      <point x="142" y="732" type="line" smooth="no"/>
      <point x="692" y="1425" type="line" smooth="no"/>
      <point x="1242" y="732" type="line" smooth="no"/>
      <point x="1242" y="576" type="line" smooth="no"/>
      <point x="692" y="-117" type="line" smooth="no"/>
    </contour>
    <contour>
      <point x="692" y="1124" type="line" smooth="no"/>
      <point x="367" y="654" type="line" smooth="no"/>
      <point x="692" y="184" type="line" smooth="no"/>
      <point x="1017" y="654" type="line" smooth="no"/>
    </contour>
  </outline>
</glyph>
<glyph name="ff" format="1">
  <advance width="1671"/>
  <unicode hex="fb00"/>
  <outline>
    <contour>
      <point x="1504" y="1403" type="curve" smooth="yes"/>
      <point x="1413" y="1403"/>
      <point x="1367" y="1346"/>
      <point x="1367" y="1164" type="curve" smooth="no"/>
      <point x="1647" y="1164" type="line" smooth="no"/>
      <point x="1647" y="1004" type="line" smooth="no"/>
      <point x="1366" y="1004" type="line" smooth="no"/>
      <point x="1366" y="0" type="line" smooth="no"/>
      <point x="1016" y="0" type="line" smooth="no"/>
      <point x="1016" y="1004" type="line" smooth="no"/>
      <point x="563" y="1004" type="line" smooth="no"/>
      <point x="563" y="0" type="line" smooth="no"/>
      <point x="213" y="0" type="line" smooth="no"/>
      <point x="213" y="1004" type="line" smooth="no"/>
      <point x="23" y="1004" type="line" smooth="no"/>
      <point x="23" y="1164" type="line" smooth="no"/>
      <point x="213" y="1164" type="line" smooth="no"/>
      <point x="213" y="1489"/>
      <point x="344" y="1662"/>
      <point x="621" y="1662" type="curve" smooth="yes"/>
      <point x="697" y="1662"/>
      <point x="773" y="1651"/>
      <point x="850" y="1633" type="curve" smooth="no"/>
      <point x="850" y="1378" type="line" smooth="no"/>
      <point x="805" y="1395"/>
      <point x="756" y="1403"/>
      <point x="701" y="1403" type="curve" smooth="yes"/>
      <point x="610" y="1403"/>
      <point x="564" y="1346"/>
      <point x="564" y="1164" type="curve" smooth="no"/>
      <point x="1016" y="1164" type="line" smooth="no"/>
      <point x="1016" y="1489"/>
      <point x="1147" y="1662"/>
      <point x="1424" y="1662" type="curve" smooth="yes"/>
      <point x="1500" y="1662"/>
      <point x="1576" y="1651"/>
      <point x="1653" y="1633" type="curve" smooth="no"/>
      <point x="1653" y="1378" type="line" smooth="no"/>
      <point x="1608" y="1395"/>
      <point x="1559" y="1403"/>
    </contour>
  </outline>
</glyph>
<glyph name="uniFB01" format="1">
  <advance width="1535"/>
  <unicode hex="fb01"/>
  <outline>
    <contour>
      <point x="1368" y="0" type="line" smooth="no"/>
      <point x="1017" y="0" type="line" smooth="no"/>
      <point x="1017" y="1004" type="line" smooth="no"/>
      <point x="563" y="1004" type="line" smooth="no"/>
      <point x="563" y="0" type="line" smooth="no"/>
      <point x="213" y="0" type="line" smooth="no"/>
      <point x="213" y="1004" type="line" smooth="no"/>
      <point x="23" y="1004" type="line" smooth="no"/>
      <point x="23" y="1164" type="line" smooth="no"/>
      <point x="213" y="1164" type="line" smooth="no"/>
      <point x="213" y="1489"/>
      <point x="344" y="1662"/>
      <point x="621" y="1662" type="curve" smooth="yes"/>
      <point x="697" y="1662"/>
      <point x="773" y="1651"/>
      <point x="850" y="1633" type="curve" smooth="no"/>
      <point x="850" y="1378" type="line" smooth="no"/>
      <point x="805" y="1395"/>
      <point x="756" y="1403"/>
      <point x="701" y="1403" type="curve" smooth="yes"/>
      <point x="610" y="1403"/>
      <point x="564" y="1346"/>
      <point x="564" y="1164" type="curve" smooth="no"/>
      <point x="1368" y="1164" type="line" smooth="no"/>
    </contour>
    <contour>
      <point x="1000" y="1532" type="curve" smooth="yes"/>
      <point x="1000" y="1641"/>
      <point x="1084" y="1726"/>
      <point x="1193" y="1726" type="curve" smooth="yes"/>
      <point x="1301" y="1726"/>
      <point x="1389" y="1641"/>
      <point x="1389" y="1532" type="curve" smooth="yes"/>
      <point x="1389" y="1422"/>
      <point x="1302" y="1338"/>
      <point x="1193" y="1338" type="curve" smooth="yes"/>
      <point x="1081" y="1338"/>
      <point x="1000" y="1426"/>
    </contour>
  </outline>
</glyph>
